<svg width="55" height="22" viewBox="0 0 103 38" fill="none" xmlns="http://www.w3.org/2000/svg">
<g clip-path="url(#clip0_1002_28161)">
<path d="M291.609 25.8971C289.027 25.8971 286.517 23.1084 286.517 18.4037C286.517 13.699 288.921 10.5456 291.179 10.5456C291.25 10.5456 291.36 10.5456 291.537 10.5815C292.325 11.1972 293.654 12.3569 294.98 13.6601V24.6657C294.048 25.3531 292.793 25.8971 291.609 25.8971ZM289.818 36C296.38 36 300 33.0319 300 27.0569V8.84185L296.235 10.1451C294.909 9.78338 293.544 9.49345 291.609 9.49345C285.692 9.49345 281.175 13.2955 281.175 19.3781C281.175 24.6268 284.511 28.5394 289.421 28.5394C291.86 28.5394 293.222 27.3438 294.693 25.9689H294.98V27.4903C294.98 31.8722 293.367 34.8403 290.499 34.8403C288.382 34.8403 287.272 34.0063 285.443 31.4358L283.004 28.0313H282.933V34.9479C284.582 35.5636 287.308 35.997 289.818 35.997M259.54 29.0117H267.358C266.354 26.5846 265.961 25.8254 265.961 23.4372V14.4223C266.857 13.3732 268.183 12.5034 269.761 12.5034C273.455 12.5034 273.597 15.5821 273.597 19.0194V23.4372C273.597 25.8254 273.204 26.5876 272.2 29.0117H280.017C279.014 26.5846 278.62 25.8254 278.62 23.4372V15.1815C278.62 11.526 276.291 9.49644 272.597 9.49644C269.835 9.49644 267.757 11.0537 266.251 12.7545H265.857C265.857 11.3436 265.676 10.3274 265.463 9.49644L259.082 11.2719C260.588 13.3343 260.946 13.8425 260.946 16.2695V23.4372C260.946 25.8254 260.553 26.5876 259.549 29.0117M250.347 29.0117H258.019C256.871 26.1871 256.693 25.8613 256.693 23.4731V9.49345L250.131 11.1583C251.315 13.1131 251.673 14.0547 251.673 16.951V23.4671C251.673 25.8194 251.421 26.3634 250.347 29.0057M254.005 7.90031C255.583 7.90031 256.838 6.63297 256.838 5.07569C256.838 3.51842 255.583 2.21521 254.005 2.21521C252.428 2.21521 251.208 3.48255 251.208 5.07569C251.208 6.66884 252.463 7.90031 254.005 7.90031ZM241.44 28.2136L241.082 29.0087H248.754L248.432 28.2136C247.68 26.5129 247.428 25.6431 247.428 23.4701V2L240.866 3.66488C242.05 5.58382 242.408 6.56123 242.408 9.49345V23.4701C242.408 25.5713 242.086 26.6922 241.44 28.2136ZM233.969 29.4092L240.064 27.6726C238.557 25.5713 238.199 24.9945 238.199 22.5674V9.96571H231.601C232.785 11.9205 233.179 12.9338 233.179 15.9049V24.9556C232.282 25.7895 231.063 26.3664 229.559 26.3664C225.865 26.3664 226.081 23.2877 226.081 19.8504V9.96571H219.554C220.738 11.9205 221.061 12.9697 221.061 15.9049V23.6883C221.061 27.3438 222.997 29.3734 227.014 29.3734C229.63 29.3734 231.604 27.9237 233.073 26.2229H233.576C233.647 27.8878 233.827 28.5394 233.969 29.4092ZM208.318 26.5846C205.415 26.5846 203.298 23.1801 203.298 18.5472C203.298 13.5495 205.415 10.6891 207.815 10.6891C208.031 10.6891 208.138 10.6891 208.318 10.7249C209.144 11.2331 210.648 12.5363 211.796 13.6571V25.0632C210.683 26.0047 209.467 26.5846 208.318 26.5846ZM212.264 29.481L218.575 27.8878L218.036 27.1286C217.068 25.7537 216.816 25.2097 216.816 22.1669V2L210.254 3.66488C211.438 5.58382 211.832 6.48949 211.832 9.42171V9.96571C210.506 9.67578 209.609 9.49644 208.173 9.49644C201.611 9.49644 197.882 13.9142 197.882 20.0327C197.882 25.5713 201.108 29.3734 205.912 29.3734C208.135 29.3734 209.893 28.396 211.648 26.477H211.9C211.971 27.6367 212.081 28.5783 212.258 29.481M184.139 17.498C184.21 12.611 186.433 10.692 188.046 10.692C189.517 10.692 190.914 12.2852 190.914 15.328V15.7973L184.139 17.498ZM179.047 19.7786C179.047 25.7537 182.813 29.3734 188.694 29.3734C192.388 29.3734 195.147 27.021 196.582 24.6298L196.26 24.2681C194.646 25.3173 193.033 26.0436 190.952 26.0436C187.403 26.0436 184.39 24.2323 184.139 18.5113L193.569 16.6282L196.295 15.2174C196.008 12.067 193.643 9.49644 189.088 9.49644C183.28 9.49644 179.047 13.5167 179.047 19.7786ZM164.117 12.7545H163.83V2L157.233 3.62901C158.417 5.58382 158.775 6.56123 158.81 9.49345V23.4342C158.81 25.8224 158.417 26.5846 157.413 29.0087H165.23C164.227 26.5816 163.833 25.8224 163.833 23.4342V14.4193C164.73 13.3702 166.056 12.5004 167.634 12.5004C171.328 12.5004 171.47 15.5791 171.47 19.0164V23.4342C171.47 25.8224 171.076 26.5846 170.073 29.0087H177.89C176.887 26.5816 176.493 25.8224 176.493 23.4342V15.1786C176.493 11.523 174.164 9.49345 170.47 9.49345C167.708 9.49345 165.63 11.0507 164.123 12.7515M148.329 29.3734C151.772 29.3734 154.604 27.1286 156.324 24.6298L156.037 24.1964C154.279 25.3561 152.63 26.0077 150.765 26.0077C146.426 26.0077 143.88 23.0038 143.88 18.1138C143.88 13.696 145.816 10.9461 148.397 10.8714C150.478 11.3048 153.311 14.2011 154.888 16.0125H154.959L155.389 10.6891C154.35 10.1092 152.017 9.49345 149.22 9.49345C143.09 9.49345 138.751 13.0773 138.751 19.7756C138.751 25.3143 142.445 29.3704 148.323 29.3704M129.024 29.3734C134.403 29.3734 137.558 27.7085 137.558 23.8347C137.558 20.215 135.477 19.0553 131.999 17.3187L129.847 16.2337C128.089 15.328 126.798 14.6047 126.798 13.0833C126.798 11.78 127.837 10.7668 129.773 10.7668C130.454 10.7668 131.17 10.8744 131.816 11.2002C133.142 12.1776 135.151 14.4223 136.155 16.1619H136.261L136.045 10.0793C134.074 9.68176 132.029 9.49943 130.561 9.49943C126.331 9.49943 122.743 11.0926 122.743 14.9305C122.743 17.9733 124.501 19.42 127.692 21.049L129.27 21.844C131.135 22.7856 133.071 23.5807 133.071 25.4279C133.071 26.8387 131.958 28.1449 129.986 28.1449C128.589 28.1449 127.944 27.8191 127.083 27.3498C126.044 26.3365 123.785 23.4043 122.853 21.4495H122.746L123.211 28.5454C124.895 29.0535 126.94 29.3793 129.018 29.3793M113.147 29.191C115.012 29.191 116.518 27.6696 116.518 25.8224C116.518 23.9752 115.012 22.4179 113.147 22.4179C111.282 22.4179 109.811 23.9393 109.811 25.8224C109.811 27.7055 111.318 29.191 113.147 29.191ZM113.147 16.4459C115.012 16.4459 116.518 14.9245 116.518 13.0773C116.518 11.2301 115.012 9.67279 113.147 9.67279C111.282 9.67279 109.811 11.1942 109.811 13.0773C109.811 14.9604 111.318 16.4459 113.147 16.4459ZM92.682 36C99.1347 36 102.864 33.0319 102.864 27.0569V9.96571H96.2665C97.4505 11.9205 97.8442 12.9338 97.8442 15.9049V24.0141C96.9118 24.8839 95.7278 25.5355 94.2241 25.5355C90.5301 25.5355 90.7462 22.4568 90.7462 18.873V9.96571H84.2195C85.4035 11.9205 85.7261 12.9697 85.7261 15.9049V22.7467C85.7261 26.6205 87.6619 28.647 91.6786 28.647C94.2952 28.647 96.2695 27.0898 97.56 25.3531H97.8471V27.4903C97.8471 31.8722 96.3405 34.8403 93.3302 34.8403C91.1428 34.8403 90.0329 33.827 88.4167 31.3282L86.4099 28.2495H86.3744V35.1302C87.881 35.7459 90.1039 36 92.685 36M72.877 9.96571H69.1119V10.5097L72.7319 12.3928V25.0662C72.7319 27.5291 74.0935 29.3764 77.8586 29.3764C80.8718 29.3764 82.6626 27.7115 83.811 26.2977L83.595 25.9719C82.7691 26.4053 82.2334 26.6235 80.5462 26.6235C78.1812 26.6235 77.7491 24.8121 77.7491 21.8799V12.4645H83.1983V9.96571H77.7491V4.42708H77.6425L72.874 9.96571H72.877ZM61.496 29.0117H69.1682C68.0197 26.1871 67.8421 25.8613 67.8421 23.4731V9.49345L61.2799 11.1583C62.4639 13.1131 62.822 14.0547 62.822 16.951V23.4671C62.822 25.8194 62.5704 26.3634 61.496 29.0057M65.1545 7.90031C66.7321 7.90031 67.9871 6.63297 67.9871 5.07569C67.9871 3.51842 66.7321 2.21521 65.1545 2.21521C63.5768 2.21521 62.3573 3.48255 62.3573 5.07569C62.3573 6.66884 63.6123 7.90031 65.1545 7.90031ZM54.2766 29.4092L60.3712 27.6726C58.8646 25.5713 58.5064 24.9945 58.5064 22.5674V9.96571H51.9087C53.0927 11.9205 53.4863 12.9338 53.4863 15.9049V24.9556C52.5895 25.7895 51.37 26.3664 49.8663 26.3664C46.1723 26.3664 46.3884 23.2877 46.3884 19.8504V9.96571H39.8617C41.0457 11.9205 41.3683 12.9697 41.3683 15.9049V23.6883C41.3683 27.3438 43.3041 29.3734 47.3207 29.3734C49.9373 29.3734 51.9116 27.9237 53.3798 26.2229H53.883C53.954 27.8878 54.1346 28.5394 54.2766 29.4092ZM30.9937 29.3734C34.4361 29.3734 37.2688 27.1286 38.9885 24.6298L38.7014 24.1964C36.9432 25.3561 35.2945 26.0077 33.4297 26.0077C29.0904 26.0077 26.5448 23.0038 26.5448 18.1138C26.5448 13.696 28.4807 10.9461 31.0617 10.8714C33.1426 11.3048 35.9753 14.2011 37.5529 16.0125H37.6239L38.0531 10.6891C37.0142 10.1092 34.6818 9.49345 31.8846 9.49345C25.7545 9.49345 21.4153 13.0773 21.4153 19.7756C21.4153 25.3143 25.1093 29.3704 30.9877 29.3704M0 20.0327C0 25.5713 3.22635 29.3734 7.85275 29.3734C9.71752 29.3734 11.5468 28.65 13.4115 26.477H13.6631C13.7342 27.6367 13.8437 28.5783 14.0213 29.481L20.1514 27.8878L19.6482 27.1286C18.7868 25.8254 18.5737 25.2097 18.5737 22.1669V8.80598L15.0247 10.2556C12.8018 9.71165 11.7984 9.49644 10.1112 9.49644C3.72954 9.49345 0 13.9112 0 20.0327ZM10.2918 26.5846C7.53012 26.5846 5.41671 23.1801 5.41671 18.5472C5.41671 13.5495 7.53308 10.6891 9.756 10.6891C9.97208 10.6891 10.0786 10.6891 10.2592 10.7249C10.94 11.2331 12.3756 12.5004 13.5566 13.6571V24.9915C12.4436 25.9689 11.2981 26.5846 10.2947 26.5846" fill="black"/>
</g>
<defs>
<clipPath id="clip0_1002_28161">
<rect width="103" height="38" fill="white"/>
</clipPath>
</defs>
</svg>
