<?xml version="1.0" encoding="UTF-8"?>
<!DOCTYPE svg PUBLIC "-//W3C//DTD SVG 1.1//EN" "http://www.w3.org/Graphics/SVG/1.1/DTD/svg11.dtd">
<svg xmlns="http://www.w3.org/2000/svg" version="1.1" width="1536px" height="1024px" style="shape-rendering:geometricPrecision; text-rendering:geometricPrecision; image-rendering:optimizeQuality; fill-rule:evenodd; clip-rule:evenodd" xmlns:xlink="http://www.w3.org/1999/xlink">
<g><path style="opacity:1" fill="#fdfdfd" d="M -0.5,-0.5 C 511.5,-0.5 1023.5,-0.5 1535.5,-0.5C 1535.5,340.833 1535.5,682.167 1535.5,1023.5C 1023.5,1023.5 511.5,1023.5 -0.5,1023.5C -0.5,682.167 -0.5,340.833 -0.5,-0.5 Z"/></g>
<g><path style="opacity:1" fill="#fbfafd" d="M 512.5,322.5 C 523.568,331.956 532.235,343.289 538.5,356.5C 538.821,358.048 539.821,358.715 541.5,358.5C 541.806,355.615 541.473,352.948 540.5,350.5C 540.101,345.573 538.768,340.906 536.5,336.5C 549.582,333.472 560.748,336.805 570,346.5C 575.338,354.506 580.172,362.839 584.5,371.5C 585.484,368.572 585.817,365.572 585.5,362.5C 596.185,365.17 604.851,370.836 611.5,379.5C 620.355,396.745 619.021,413.245 607.5,429C 605.098,429.814 602.765,429.647 600.5,428.5C 599.338,414.512 593.671,402.845 583.5,393.5C 575.879,385.694 566.545,381.694 555.5,381.5C 556.5,378.167 557.5,374.833 558.5,371.5C 557.448,371.351 556.448,371.517 555.5,372C 545.386,380.724 534.053,387.391 521.5,392C 512.107,392.113 502.774,392.78 493.5,394C 487.898,395.8 482.898,398.634 478.5,402.5C 477.509,396.021 477.176,389.354 477.5,382.5C 482.506,369.15 492.173,361.817 506.5,360.5C 511.912,361.13 517.245,362.13 522.5,363.5C 523.5,363.167 524.5,362.833 525.5,362.5C 514.899,352.21 502.566,349.71 488.5,355C 484.696,357.305 481.03,359.805 477.5,362.5C 476.334,352.517 476.168,342.517 477,332.5C 481.365,321.068 489.532,316.568 501.5,319C 505.288,319.874 508.954,321.041 512.5,322.5 Z"/></g>
<g><path style="opacity:1" fill="#fbf7fe" d="M 400.5,337.5 C 396.435,338.351 392.435,339.517 388.5,341C 380,348.833 371.5,356.667 363,364.5C 362.661,367.88 362.161,371.213 361.5,374.5C 355.269,381.709 348.602,382.209 341.5,376C 337.234,374.502 334.234,375.668 332.5,379.5C 323.926,382.331 320.426,379.331 322,370.5C 325.691,366.734 329.524,366.567 333.5,370C 335.473,370.495 337.473,370.662 339.5,370.5C 339.517,368.435 339.85,366.435 340.5,364.5C 342.288,361.385 344.954,359.385 348.5,358.5C 352.225,358.595 355.891,358.762 359.5,359C 367.5,351.667 375.5,344.333 383.5,337C 386.554,334.806 389.888,333.139 393.5,332C 399.855,330.774 406.188,329.441 412.5,328C 413.123,324.546 414.789,321.713 417.5,319.5C 427.93,316.953 432.43,320.953 431,331.5C 425.549,337.348 419.549,338.015 413,333.5C 408.759,334.971 404.593,336.304 400.5,337.5 Z"/></g>
<g><path style="opacity:1" fill="#a440f9" d="M 414.5,307.5 C 414.389,308.117 414.056,308.617 413.5,309C 415.283,310.739 416.95,312.572 418.5,314.5C 417.833,315.833 417.167,317.167 416.5,318.5C 416.624,319.107 416.957,319.44 417.5,319.5C 414.789,321.713 413.123,324.546 412.5,328C 406.188,329.441 399.855,330.774 393.5,332C 389.888,333.139 386.554,334.806 383.5,337C 375.5,344.333 367.5,351.667 359.5,359C 355.891,358.762 352.225,358.595 348.5,358.5C 351.641,357.679 354.975,357.179 358.5,357C 358.043,356.586 357.709,356.086 357.5,355.5C 358.899,353.395 360.566,351.562 362.5,350C 361.643,349.311 360.977,348.478 360.5,347.5C 361.651,343.577 362.485,339.577 363,335.5C 365.137,333.974 366.304,332.307 366.5,330.5C 367.452,332.045 367.785,333.712 367.5,335.5C 365.058,335.354 364.391,336.187 365.5,338C 363.366,341.838 364.366,345.005 368.5,347.5C 368.564,346.635 368.897,345.635 369.5,344.5C 370.325,343.614 371.325,343.281 372.5,343.5C 373.866,340.936 375.533,338.436 377.5,336C 378.833,335.667 380.167,335.333 381.5,335C 377.366,331.825 377.7,329.491 382.5,328C 376.747,327.149 371.08,327.483 365.5,329C 364.164,332.832 361.497,334.332 357.5,333.5C 371.729,323.025 387.729,316.525 405.5,314C 407.815,310.847 410.815,308.68 414.5,307.5 Z"/></g>
<g><path style="opacity:1" fill="#af36f9" d="M 348.5,358.5 C 344.954,359.385 342.288,361.385 340.5,364.5C 339.001,365.678 338.001,367.345 337.5,369.5C 336.269,368.349 336.269,367.183 337.5,366C 336.833,365.667 336.167,365.333 335.5,365C 338.264,362.301 337.597,360.634 333.5,360C 334.428,359.612 335.095,358.945 335.5,358C 334.556,356.523 333.223,355.523 331.5,355C 334.332,354.788 336.998,354.621 339.5,354.5C 340.5,352.833 341.833,351.5 343.5,350.5C 342.833,350.167 342.167,349.833 341.5,349.5C 342.127,348.583 342.461,347.583 342.5,346.5C 346.899,341.468 351.899,337.135 357.5,333.5C 361.497,334.332 364.164,332.832 365.5,329C 371.08,327.483 376.747,327.149 382.5,328C 377.7,329.491 377.366,331.825 381.5,335C 380.167,335.333 378.833,335.667 377.5,336C 375.533,338.436 373.866,340.936 372.5,343.5C 371.325,343.281 370.325,343.614 369.5,344.5C 368.897,345.635 368.564,346.635 368.5,347.5C 364.366,345.005 363.366,341.838 365.5,338C 364.391,336.187 365.058,335.354 367.5,335.5C 367.785,333.712 367.452,332.045 366.5,330.5C 366.304,332.307 365.137,333.974 363,335.5C 362.485,339.577 361.651,343.577 360.5,347.5C 360.977,348.478 361.643,349.311 362.5,350C 360.566,351.562 358.899,353.395 357.5,355.5C 357.709,356.086 358.043,356.586 358.5,357C 354.975,357.179 351.641,357.679 348.5,358.5 Z"/></g>
<g><path style="opacity:1" fill="#8343f9" d="M 447.5,325.5 C 447.5,331.167 447.5,336.833 447.5,342.5C 445.941,344.608 444.608,346.941 443.5,349.5C 440.536,351.687 438.036,354.354 436,357.5C 435.692,356.692 435.192,356.025 434.5,355.5C 433.473,356.791 432.473,356.791 431.5,355.5C 426.18,348.196 420.18,347.696 413.5,354C 406.785,354.243 400.119,354.743 393.5,355.5C 391.972,355.483 391.472,354.816 392,353.5C 395.203,351.429 398.203,349.096 401,346.5C 401.483,345.552 401.649,344.552 401.5,343.5C 398.886,343.723 397.219,342.556 396.5,340C 398.066,339.392 399.4,338.558 400.5,337.5C 404.593,336.304 408.759,334.971 413,333.5C 419.549,338.015 425.549,337.348 431,331.5C 432.43,320.953 427.93,316.953 417.5,319.5C 416.957,319.44 416.624,319.107 416.5,318.5C 417.167,317.167 417.833,315.833 418.5,314.5C 416.95,312.572 415.283,310.739 413.5,309C 414.056,308.617 414.389,308.117 414.5,307.5C 430.912,303.869 441.912,309.869 447.5,325.5 Z"/></g>
<g><path style="opacity:1" fill="#5b4df7" d="M 518.5,313.5 C 519.237,318.366 517.237,321.366 512.5,322.5C 508.954,321.041 505.288,319.874 501.5,319C 489.532,316.568 481.365,321.068 477,332.5C 476.168,342.517 476.334,352.517 477.5,362.5C 481.03,359.805 484.696,357.305 488.5,355C 502.566,349.71 514.899,352.21 525.5,362.5C 524.5,362.833 523.5,363.167 522.5,363.5C 517.245,362.13 511.912,361.13 506.5,360.5C 492.173,361.817 482.506,369.15 477.5,382.5C 476.509,389.313 476.175,396.313 476.5,403.5C 476.33,404.822 476.663,405.989 477.5,407C 476.552,407.483 475.552,407.649 474.5,407.5C 474.5,406.5 474.5,405.5 474.5,404.5C 473.5,404.5 472.5,404.5 471.5,404.5C 471.666,399.156 471.499,393.823 471,388.5C 469.245,387.33 468.245,385.663 468,383.5C 467.329,382.748 466.496,382.414 465.5,382.5C 465.5,364.833 465.5,347.167 465.5,329.5C 468.576,317.923 475.909,310.423 487.5,307C 498.902,304.912 509.235,307.079 518.5,313.5 Z"/></g>
<g><path style="opacity:1" fill="#983ef6" d="M 400.5,337.5 C 399.4,338.558 398.066,339.392 396.5,340C 397.219,342.556 398.886,343.723 401.5,343.5C 401.649,344.552 401.483,345.552 401,346.5C 398.203,349.096 395.203,351.429 392,353.5C 391.472,354.816 391.972,355.483 393.5,355.5C 385.865,362.302 378.699,369.635 372,377.5C 371.831,389.007 371.331,400.341 370.5,411.5C 369.671,403.343 369.171,395.01 369,386.5C 368.587,392.746 367.254,398.746 365,404.5C 364.667,404.167 364.333,403.833 364,403.5C 363.241,405.635 361.741,406.968 359.5,407.5C 358.833,402.683 358.166,398.017 357.5,393.5C 356.952,390.916 355.285,389.916 352.5,390.5C 351.391,389.71 350.058,389.21 348.5,389C 353.061,387.078 357.561,387.245 362,389.5C 362.667,388.167 363.333,386.833 364,385.5C 364.333,385.833 364.667,386.167 365,386.5C 365.5,385.333 366.333,384.5 367.5,384C 367.167,383.667 366.833,383.333 366.5,383C 366.977,380.101 367.977,377.434 369.5,375C 368.671,373.184 367.837,371.351 367,369.5C 366.871,373.118 365.038,374.785 361.5,374.5C 362.161,371.213 362.661,367.88 363,364.5C 371.5,356.667 380,348.833 388.5,341C 392.435,339.517 396.435,338.351 400.5,337.5 Z"/></g>
<g><path style="opacity:1" fill="#b8b5f4" d="M 540.5,350.5 C 541.473,352.948 541.806,355.615 541.5,358.5C 539.821,358.715 538.821,358.048 538.5,356.5C 539.117,356.611 539.617,356.944 540,357.5C 540.497,355.19 540.663,352.857 540.5,350.5 Z"/></g>
<g><path style="opacity:1" fill="#4a4df2" d="M 518.5,313.5 C 523.105,316.436 527.105,320.102 530.5,324.5C 555.545,321.357 574.545,330.524 587.5,352C 600.784,355.461 611.451,362.628 619.5,373.5C 618.265,373.721 617.265,374.388 616.5,375.5C 614.837,371.665 614.337,371.999 615,376.5C 618.418,378.391 618.251,379.725 614.5,380.5C 613.583,379.873 612.583,379.539 611.5,379.5C 604.851,370.836 596.185,365.17 585.5,362.5C 585.817,365.572 585.484,368.572 584.5,371.5C 580.172,362.839 575.338,354.506 570,346.5C 560.748,336.805 549.582,333.472 536.5,336.5C 538.768,340.906 540.101,345.573 540.5,350.5C 540.663,352.857 540.497,355.19 540,357.5C 539.617,356.944 539.117,356.611 538.5,356.5C 532.235,343.289 523.568,331.956 512.5,322.5C 517.237,321.366 519.237,318.366 518.5,313.5 Z"/></g>
<g><path style="opacity:1" fill="#be3afa" d="M 342.5,346.5 C 342.461,347.583 342.127,348.583 341.5,349.5C 342.167,349.833 342.833,350.167 343.5,350.5C 341.833,351.5 340.5,352.833 339.5,354.5C 336.998,354.621 334.332,354.788 331.5,355C 333.223,355.523 334.556,356.523 335.5,358C 335.095,358.945 334.428,359.612 333.5,360C 337.597,360.634 338.264,362.301 335.5,365C 336.167,365.333 336.833,365.667 337.5,366C 336.269,367.183 336.269,368.349 337.5,369.5C 338.001,367.345 339.001,365.678 340.5,364.5C 339.85,366.435 339.517,368.435 339.5,370.5C 337.473,370.662 335.473,370.495 333.5,370C 329.524,366.567 325.691,366.734 322,370.5C 320.426,379.331 323.926,382.331 332.5,379.5C 332.389,380.117 332.056,380.617 331.5,381C 327.416,381.231 323.416,381.898 319.5,383C 318.167,383.667 318.167,384.333 319.5,385C 318.833,385.333 318.167,385.667 317.5,386C 317.728,386.399 318.062,386.565 318.5,386.5C 316.027,388.143 314.027,390.31 312.5,393C 306.804,393.83 301.137,393.663 295.5,392.5C 300.11,369.222 314.11,355.888 337.5,352.5C 339.185,350.429 340.852,348.429 342.5,346.5 Z"/></g>
<g><path style="opacity:1" fill="#6b44f5" d="M 447.5,342.5 C 447.667,353.838 447.5,365.172 447,376.5C 445.154,379.569 444.154,382.902 444,386.5C 442.599,384.808 440.766,384.141 438.5,384.5C 438.509,386.308 438.009,387.975 437,389.5C 434.8,388.478 432.8,387.145 431,385.5C 430.667,385.833 430.333,386.167 430,386.5C 429.667,395.5 429.333,404.5 429,413.5C 428.5,397.837 428.333,382.17 428.5,366.5C 431.056,363.332 432.056,359.666 431.5,355.5C 432.473,356.791 433.473,356.791 434.5,355.5C 435.192,356.025 435.692,356.692 436,357.5C 438.036,354.354 440.536,351.687 443.5,349.5C 444.608,346.941 445.941,344.608 447.5,342.5 Z"/></g>
<g><path style="opacity:1" fill="#a838f8" d="M 352.5,390.5 C 343.494,390.666 334.494,390.5 325.5,390C 323.933,387.259 321.599,386.092 318.5,386.5C 318.062,386.565 317.728,386.399 317.5,386C 318.167,385.667 318.833,385.333 319.5,385C 318.167,384.333 318.167,383.667 319.5,383C 323.416,381.898 327.416,381.231 331.5,381C 332.056,380.617 332.389,380.117 332.5,379.5C 334.234,375.668 337.234,374.502 341.5,376C 348.602,382.209 355.269,381.709 361.5,374.5C 365.038,374.785 366.871,373.118 367,369.5C 367.837,371.351 368.671,373.184 369.5,375C 367.977,377.434 366.977,380.101 366.5,383C 366.833,383.333 367.167,383.667 367.5,384C 366.333,384.5 365.5,385.333 365,386.5C 364.667,386.167 364.333,385.833 364,385.5C 363.333,386.833 362.667,388.167 362,389.5C 357.561,387.245 353.061,387.078 348.5,389C 350.058,389.21 351.391,389.71 352.5,390.5 Z"/></g>
<g><path style="opacity:1" fill="#5e4bf0" d="M 447.5,325.5 C 448.498,358.662 448.832,391.996 448.5,425.5C 439.141,427.952 432.308,424.952 428,416.5C 427.172,399.662 427.338,382.995 428.5,366.5C 428.333,382.17 428.5,397.837 429,413.5C 429.333,404.5 429.667,395.5 430,386.5C 430.333,386.167 430.667,385.833 431,385.5C 432.8,387.145 434.8,388.478 437,389.5C 438.009,387.975 438.509,386.308 438.5,384.5C 440.766,384.141 442.599,384.808 444,386.5C 444.154,382.902 445.154,379.569 447,376.5C 447.5,365.172 447.667,353.838 447.5,342.5C 447.5,336.833 447.5,331.167 447.5,325.5 Z"/></g>
<g><path style="opacity:1" fill="#fafafd" d="M 572.5,396.5 C 584.653,406.482 590.653,419.482 590.5,435.5C 589.914,441.186 589.247,446.853 588.5,452.5C 584.542,465.958 576.875,476.792 565.5,485C 564.5,485.667 563.5,485.667 562.5,485C 553.957,475.568 543.29,471.401 530.5,472.5C 530.5,473.5 530.5,474.5 530.5,475.5C 531.791,475.263 532.791,475.596 533.5,476.5C 532.737,477.268 531.737,477.768 530.5,478C 531.167,478.333 531.833,478.667 532.5,479C 531.421,479.956 530.255,480.789 529,481.5C 528.275,491.73 522.775,497.73 512.5,499.5C 511.833,499.167 511.167,498.833 510.5,498.5C 511.309,496.929 511.643,495.262 511.5,493.5C 508.833,493.5 506.167,493.5 503.5,493.5C 494.732,492.234 487.899,487.901 483,480.5C 481.044,476.107 479.211,471.774 477.5,467.5C 477.334,463.486 477.501,459.486 478,455.5C 478.5,455 479,454.5 479.5,454C 490.421,455.917 500.754,454.25 510.5,449C 518.07,443.692 521.737,436.525 521.5,427.5C 510.068,444.2 495.068,448.533 476.5,440.5C 473.093,415.736 483.926,403.07 509,402.5C 533.256,403.757 546.923,416.423 550,440.5C 556.056,425.076 552.723,412.076 540,401.5C 539.613,397.835 541.113,395.002 544.5,393C 554.363,390.333 563.696,391.5 572.5,396.5 Z"/></g>
<g><path style="opacity:1" fill="#4f4ef4" d="M 583.5,393.5 C 583.19,394.738 582.69,394.738 582,393.5C 581.667,395.167 581.333,396.833 581,398.5C 579.984,397.366 579.317,397.699 579,399.5C 578.683,397.699 578.016,397.366 577,398.5C 575.67,397.418 574.17,396.751 572.5,396.5C 563.696,391.5 554.363,390.333 544.5,393C 541.113,395.002 539.613,397.835 540,401.5C 552.723,412.076 556.056,425.076 550,440.5C 546.923,416.423 533.256,403.757 509,402.5C 483.926,403.07 473.093,415.736 476.5,440.5C 474.821,440.108 473.154,439.608 471.5,439C 471.273,437.865 470.94,436.698 470.5,435.5C 469.572,437.335 468.406,437.668 467,436.5C 466.667,438.167 466.333,439.833 466,441.5C 465.5,421.836 465.333,402.169 465.5,382.5C 466.496,382.414 467.329,382.748 468,383.5C 468.245,385.663 469.245,387.33 471,388.5C 471.499,393.823 471.666,399.156 471.5,404.5C 472.5,404.5 473.5,404.5 474.5,404.5C 474.5,405.5 474.5,406.5 474.5,407.5C 475.552,407.649 476.552,407.483 477.5,407C 476.663,405.989 476.33,404.822 476.5,403.5C 477.492,403.672 478.158,403.338 478.5,402.5C 482.898,398.634 487.898,395.8 493.5,394C 502.774,392.78 512.107,392.113 521.5,392C 534.053,387.391 545.386,380.724 555.5,372C 556.448,371.517 557.448,371.351 558.5,371.5C 557.5,374.833 556.5,378.167 555.5,381.5C 566.545,381.694 575.879,385.694 583.5,393.5 Z"/></g>
<g><path style="opacity:1" fill="#a538f8" d="M 326.5,395.5 C 335.167,395.5 343.833,395.5 352.5,395.5C 352.823,399.226 352.489,402.893 351.5,406.5C 349.31,408.524 346.977,410.357 344.5,412C 331.833,412.667 319.167,412.667 306.5,412C 303.402,406.051 298.736,404.218 292.5,406.5C 289.654,406.97 287.321,406.137 285.5,404C 287.108,403.342 288.275,403.842 289,405.5C 292.517,404.597 295.684,403.097 298.5,401C 298.167,400.667 297.833,400.333 297.5,400C 302.871,399.324 308.204,399.491 313.5,400.5C 313.617,402.484 312.95,404.15 311.5,405.5C 311.833,405.833 312.167,406.167 312.5,406.5C 315.796,405.235 319.129,404.068 322.5,403C 324.839,401.011 326.173,398.511 326.5,395.5 Z"/></g>
<g><path style="opacity:1" fill="#afb7f6" d="M 477.5,382.5 C 477.176,389.354 477.509,396.021 478.5,402.5C 478.158,403.338 477.492,403.672 476.5,403.5C 476.175,396.313 476.509,389.313 477.5,382.5 Z"/></g>
<g><path style="opacity:1" fill="#7b3cf2" d="M 420.5,368.5 C 420.667,385.503 420.5,402.503 420,419.5C 419.667,417.167 419.333,414.833 419,412.5C 418.333,411.167 417.333,410.167 416,409.5C 415.667,407.5 415.333,405.5 415,403.5C 413.956,404.623 413.29,405.956 413,407.5C 410.974,406.981 408.974,406.647 407,406.5C 406.147,410.469 405.481,414.469 405,418.5C 404.5,408.839 404.334,399.172 404.5,389.5C 408.888,386.004 409.555,381.838 406.5,377C 398.399,373.477 394.233,375.977 394,384.5C 394.972,386.305 396.139,387.972 397.5,389.5C 398.665,398.816 398.832,408.149 398,417.5C 391.961,425.04 385.127,431.707 377.5,437.5C 376.739,436.609 375.739,435.942 374.5,435.5C 368.947,438.636 363.113,441.302 357,443.5C 355.029,442.472 353.863,440.805 353.5,438.5C 360.852,430.648 368.352,422.982 376,415.5C 377.272,403.57 377.938,391.57 378,379.5C 383.864,373.301 390.031,367.468 396.5,362C 401.833,361.333 407.167,361.333 412.5,362C 414.203,365.554 416.87,367.721 420.5,368.5 Z"/></g>
<g><path style="opacity:1" fill="#af3af6" d="M 326.5,395.5 C 326.173,398.511 324.839,401.011 322.5,403C 319.129,404.068 315.796,405.235 312.5,406.5C 312.167,406.167 311.833,405.833 311.5,405.5C 312.95,404.15 313.617,402.484 313.5,400.5C 308.204,399.491 302.871,399.324 297.5,400C 297.833,400.333 298.167,400.667 298.5,401C 295.684,403.097 292.517,404.597 289,405.5C 288.275,403.842 287.108,403.342 285.5,404C 287.321,406.137 289.654,406.97 292.5,406.5C 287.434,410.056 286.267,414.722 289,420.5C 293.137,424.542 297.97,425.542 303.5,423.5C 302.167,425.167 302.167,426.833 303.5,428.5C 301.142,428.253 299.142,428.919 297.5,430.5C 297.5,429.5 297.5,428.5 297.5,427.5C 298.978,427.762 300.311,427.429 301.5,426.5C 296.544,425.506 291.544,425.173 286.5,425.5C 286.5,427.167 286.5,428.833 286.5,430.5C 283.118,429.237 279.618,428.237 276,427.5C 275.581,428.672 274.915,429.672 274,430.5C 273.333,429.167 272.667,429.167 272,430.5C 271.667,428.5 271.333,426.5 271,424.5C 270.768,425.737 270.268,426.737 269.5,427.5C 275.215,403.654 290.215,394.154 314.5,399C 319.752,401.745 323.752,400.578 326.5,395.5 Z"/></g>
<g><path style="opacity:1" fill="#8d37f3" d="M 370.5,411.5 C 363.757,418.745 356.757,425.911 349.5,433C 335.833,433.667 322.167,433.667 308.5,433C 306.963,431.293 305.296,429.793 303.5,428.5C 302.167,426.833 302.167,425.167 303.5,423.5C 304.74,422.027 305.74,420.36 306.5,418.5C 320.915,417.968 335.248,417.134 349.5,416C 357.077,410.432 359.744,402.932 357.5,393.5C 358.166,398.017 358.833,402.683 359.5,407.5C 361.741,406.968 363.241,405.635 364,403.5C 364.333,403.833 364.667,404.167 365,404.5C 367.254,398.746 368.587,392.746 369,386.5C 369.171,395.01 369.671,403.343 370.5,411.5 Z"/></g>
<g><path style="opacity:1" fill="#eef1fb" d="M 632.5,414.5 C 643.58,423.743 647.247,435.41 643.5,449.5C 640.213,448.736 637.546,446.903 635.5,444C 634.365,443.251 633.365,443.417 632.5,444.5C 635.887,451.273 638.72,458.273 641,465.5C 643.014,476.908 641.18,487.574 635.5,497.5C 630.656,493.109 628.489,494.443 629,501.5C 626.274,504.776 623.441,507.942 620.5,511C 619.767,512.766 619.433,514.599 619.5,516.5C 621.857,516.337 624.19,516.503 626.5,517C 623.298,518.483 619.964,518.817 616.5,518C 615.929,516.795 615.262,515.628 614.5,514.5C 612.512,515.289 612.179,516.455 613.5,518C 610.456,518.359 610.122,519.026 612.5,520C 610.527,520.495 608.527,520.662 606.5,520.5C 606.736,523.829 605.903,526.829 604,529.5C 602.989,530.337 601.822,530.67 600.5,530.5C 600.453,533.568 599.953,536.568 599,539.5C 598.197,534.685 597.363,530.019 596.5,525.5C 596.489,518.949 594.656,512.949 591,507.5C 586.287,501.286 580.787,495.952 574.5,491.5C 584.473,483.544 591.473,473.544 595.5,461.5C 598.874,452.879 600.708,443.879 601,434.5C 609.331,432.163 615.997,427.496 621,420.5C 622.304,417.213 623.97,414.213 626,411.5C 628.253,412.377 630.419,413.377 632.5,414.5 Z"/></g>
<g><path style="opacity:1" fill="#a233f5" d="M 297.5,430.5 C 293.355,434.802 293.688,438.802 298.5,442.5C 291.792,445.975 284.625,448.308 277,449.5C 275.251,450.41 274.084,451.743 273.5,453.5C 270.482,452.647 268.649,450.647 268,447.5C 267.513,440.726 268.013,434.059 269.5,427.5C 270.268,426.737 270.768,425.737 271,424.5C 271.333,426.5 271.667,428.5 272,430.5C 272.667,429.167 273.333,429.167 274,430.5C 274.915,429.672 275.581,428.672 276,427.5C 279.618,428.237 283.118,429.237 286.5,430.5C 286.5,428.833 286.5,427.167 286.5,425.5C 291.544,425.173 296.544,425.506 301.5,426.5C 300.311,427.429 298.978,427.762 297.5,427.5C 297.5,428.5 297.5,429.5 297.5,430.5 Z"/></g>
<g><path style="opacity:1" fill="#4b4fef" d="M 465.5,329.5 C 465.5,347.167 465.5,364.833 465.5,382.5C 465.333,402.169 465.5,421.836 466,441.5C 466.333,439.833 466.667,438.167 467,436.5C 468.406,437.668 469.572,437.335 470.5,435.5C 470.94,436.698 471.273,437.865 471.5,439C 473.154,439.608 474.821,440.108 476.5,440.5C 495.068,448.533 510.068,444.2 521.5,427.5C 521.737,436.525 518.07,443.692 510.5,449C 500.754,454.25 490.421,455.917 479.5,454C 479,454.5 478.5,455 478,455.5C 477.501,459.486 477.334,463.486 477.5,467.5C 477.848,471.177 477.182,473.844 475.5,475.5C 472.509,475.33 470.509,476.663 469.5,479.5C 469.852,480.786 470.518,481.619 471.5,482C 470.02,481.942 469.187,483.109 469,485.5C 467.806,483.377 467.14,481.043 467,478.5C 466.667,482.5 466.333,486.5 466,490.5C 465.831,474.995 465.331,459.661 464.5,444.5C 464.168,405.996 464.501,367.663 465.5,329.5 Z"/></g>
<g><path style="opacity:1" fill="#6546ec" d="M 420.5,368.5 C 421.332,385.662 421.832,402.995 422,420.5C 423.095,421.693 423.928,423.027 424.5,424.5C 423.491,427.049 422.658,429.715 422,432.5C 420.201,432.279 418.368,431.946 416.5,431.5C 415.735,432.612 414.735,433.279 413.5,433.5C 405.305,431.768 400.971,435.101 400.5,443.5C 400.714,445.144 400.38,446.644 399.5,448C 400.167,448.667 400.833,449.333 401.5,450C 400.139,451.584 399.472,453.418 399.5,455.5C 394.17,456.83 389.837,459.664 386.5,464C 385.552,464.483 384.552,464.649 383.5,464.5C 383.657,465.873 383.49,467.207 383,468.5C 382.617,467.944 382.117,467.611 381.5,467.5C 381.334,459.16 381.5,450.827 382,442.5C 388.364,435.801 395.031,429.468 402,423.5C 402.333,422.5 402.667,421.5 403,420.5C 403.17,409.992 403.67,399.659 404.5,389.5C 404.334,399.172 404.5,408.839 405,418.5C 405.481,414.469 406.147,410.469 407,406.5C 408.974,406.647 410.974,406.981 413,407.5C 413.29,405.956 413.956,404.623 415,403.5C 415.333,405.5 415.667,407.5 416,409.5C 417.333,410.167 418.333,411.167 419,412.5C 419.333,414.833 419.667,417.167 420,419.5C 420.5,402.503 420.667,385.503 420.5,368.5 Z"/></g>
<g><path style="opacity:1" fill="#8a37f2" d="M 346.5,449.5 C 345.719,453.664 343.886,457.331 341,460.5C 340.333,459.167 339.667,459.167 339,460.5C 338.802,458.618 338.302,456.952 337.5,455.5C 334.796,449.316 330.129,447.15 323.5,449C 321.415,450.041 319.748,451.541 318.5,453.5C 303.339,454.826 288.339,454.826 273.5,453.5C 274.084,451.743 275.251,450.41 277,449.5C 284.625,448.308 291.792,445.975 298.5,442.5C 302.122,443.076 305.122,442.076 307.5,439.5C 319.486,438.334 331.486,438.167 343.5,439C 346.231,441.897 347.231,445.397 346.5,449.5 Z"/></g>
<g><path style="opacity:1" fill="#4947e7" d="M 424.5,424.5 C 427.335,427.165 430.335,429.665 433.5,432C 438.418,432.195 443.251,432.695 448,433.5C 448.5,448.83 448.667,464.163 448.5,479.5C 439.494,479.666 430.494,479.5 421.5,479C 419.333,476.833 417.167,474.667 415,472.5C 413.402,464.939 413.069,457.272 414,449.5C 420.152,443.76 419.985,438.426 413.5,433.5C 414.735,433.279 415.735,432.612 416.5,431.5C 418.368,431.946 420.201,432.279 422,432.5C 422.658,429.715 423.491,427.049 424.5,424.5 Z"/></g>
<g><path style="opacity:1" fill="#3c4ae8" d="M 619.5,373.5 C 625.717,381.658 628.884,390.991 629,401.5C 632.996,403.237 636.496,405.57 639.5,408.5C 638.341,410.377 636.674,410.877 634.5,410C 638.19,409.576 638.357,408.742 635,407.5C 633.294,408.308 632.461,409.641 632.5,411.5C 634.167,411.5 635.833,411.5 637.5,411.5C 637.5,412.833 637.5,414.167 637.5,415.5C 635.784,415.371 634.117,415.038 632.5,414.5C 630.419,413.377 628.253,412.377 626,411.5C 623.97,414.213 622.304,417.213 621,420.5C 615.997,427.496 609.331,432.163 601,434.5C 600.708,443.879 598.874,452.879 595.5,461.5C 594.259,459.069 593.092,459.069 592,461.5C 590.227,458.713 589.06,455.713 588.5,452.5C 589.247,446.853 589.914,441.186 590.5,435.5C 590.653,419.482 584.653,406.482 572.5,396.5C 574.17,396.751 575.67,397.418 577,398.5C 578.016,397.366 578.683,397.699 579,399.5C 579.317,397.699 579.984,397.366 581,398.5C 581.333,396.833 581.667,395.167 582,393.5C 582.69,394.738 583.19,394.738 583.5,393.5C 593.671,402.845 599.338,414.512 600.5,428.5C 602.765,429.647 605.098,429.814 607.5,429C 619.021,413.245 620.355,396.745 611.5,379.5C 612.583,379.539 613.583,379.873 614.5,380.5C 618.251,379.725 618.418,378.391 615,376.5C 614.337,371.999 614.837,371.665 616.5,375.5C 617.265,374.388 618.265,373.721 619.5,373.5 Z"/></g>
<g><path style="opacity:1" fill="#6841eb" d="M 377.5,437.5 C 377.013,438.473 376.513,439.473 376,440.5C 375.5,450.828 375.334,461.161 375.5,471.5C 371.647,472.345 368.981,474.679 367.5,478.5C 361.88,480.564 357.047,479.564 353,475.5C 352.173,462.993 352.34,450.66 353.5,438.5C 353.863,440.805 355.029,442.472 357,443.5C 363.113,441.302 368.947,438.636 374.5,435.5C 375.739,435.942 376.739,436.609 377.5,437.5 Z"/></g>
<g><path style="opacity:1" fill="#304fdc" d="M 639.5,408.5 C 645.874,412.529 650.374,418.196 653,425.5C 654.986,435.209 654.819,444.876 652.5,454.5C 661.874,464.912 668.374,476.912 672,490.5C 672.821,497.346 672.654,504.013 671.5,510.5C 670.672,504.347 670.172,498.013 670,491.5C 669.333,494.167 668.667,494.167 668,491.5C 666.667,492.167 665.667,493.167 665,494.5C 664.667,494.167 664.333,493.833 664,493.5C 663.667,499.5 663.333,505.5 663,511.5C 662.506,509.866 662.34,508.199 662.5,506.5C 663.356,494.582 660.189,483.915 653,474.5C 651.288,494.018 641.455,507.351 623.5,514.5C 622.479,513.998 622.312,513.332 623,512.5C 628.128,508.208 632.295,503.208 635.5,497.5C 641.18,487.574 643.014,476.908 641,465.5C 638.72,458.273 635.887,451.273 632.5,444.5C 633.365,443.417 634.365,443.251 635.5,444C 637.546,446.903 640.213,448.736 643.5,449.5C 647.247,435.41 643.58,423.743 632.5,414.5C 634.117,415.038 635.784,415.371 637.5,415.5C 637.5,414.167 637.5,412.833 637.5,411.5C 635.833,411.5 634.167,411.5 632.5,411.5C 632.461,409.641 633.294,408.308 635,407.5C 638.357,408.742 638.19,409.576 634.5,410C 636.674,410.877 638.341,410.377 639.5,408.5 Z"/></g>
<g><path style="opacity:1" fill="#5759f4" d="M 1015.5,452.5 C 1027.43,451.903 1031.43,457.07 1027.5,468C 1016.31,473.931 1010.48,470.764 1010,458.5C 1011.36,455.977 1013.19,453.977 1015.5,452.5 Z"/></g>
<g><path style="opacity:1" fill="#9340ef" d="M 317.5,461.5 C 302.485,461.167 287.485,461.501 272.5,462.5C 276.122,463.325 279.789,463.825 283.5,464C 281.336,464.914 279.336,466.081 277.5,467.5C 277.833,468.833 278.167,470.167 278.5,471.5C 279.391,472.59 280.391,472.59 281.5,471.5C 282.739,473.007 282.405,474.174 280.5,475C 281.252,475.671 281.586,476.504 281.5,477.5C 277.487,473.91 272.82,472.743 267.5,474C 265.959,475.371 264.625,476.871 263.5,478.5C 262.996,481.453 261.996,484.286 260.5,487C 262.922,489.003 263.755,491.503 263,494.5C 260.306,495.006 258.806,496.173 258.5,498C 260.059,498.98 261.726,499.813 263.5,500.5C 261.234,501.314 258.9,501.814 256.5,502C 256.833,502.333 257.167,502.667 257.5,503C 273.83,503.5 290.163,503.667 306.5,503.5C 306.5,503.833 306.5,504.167 306.5,504.5C 287.83,504.667 269.164,504.5 250.5,504C 248.599,491.014 249.432,478.18 253,465.5C 255.243,460.761 258.077,456.428 261.5,452.5C 264.354,455.188 267.354,457.688 270.5,460C 286.339,460.169 302.005,460.669 317.5,461.5 Z"/></g>
<g><path style="opacity:1" fill="#3099f9" d="M 1248.5,456.5 C 1248.5,456.833 1248.5,457.167 1248.5,457.5C 1247.67,471.327 1247.17,485.327 1247,499.5C 1246.67,490.5 1246.33,481.5 1246,472.5C 1244.62,477.036 1244.12,481.703 1244.5,486.5C 1243.5,486.5 1242.5,486.5 1241.5,486.5C 1241.82,482.253 1240.99,478.253 1239,474.5C 1238.89,476.974 1237.89,478.974 1236,480.5C 1235.67,480.167 1235.33,479.833 1235,479.5C 1234.67,481.833 1234.33,484.167 1234,486.5C 1233.67,476.833 1233.33,467.167 1233,457.5C 1232.5,485.831 1232.33,514.165 1232.5,542.5C 1232.17,542.5 1231.83,542.5 1231.5,542.5C 1231.5,513.833 1231.5,485.167 1231.5,456.5C 1237.17,456.5 1242.83,456.5 1248.5,456.5 Z"/></g>
<g><path style="opacity:1" fill="#7932ef" d="M 317.5,461.5 C 319.288,464.615 321.954,466.615 325.5,467.5C 327.042,468.163 328.709,468.83 330.5,469.5C 327.807,471.27 324.807,471.937 321.5,471.5C 320.833,473.833 320.167,476.167 319.5,478.5C 306.833,478.5 294.167,478.5 281.5,478.5C 281.5,478.167 281.5,477.833 281.5,477.5C 281.586,476.504 281.252,475.671 280.5,475C 282.405,474.174 282.739,473.007 281.5,471.5C 280.391,472.59 279.391,472.59 278.5,471.5C 278.167,470.167 277.833,468.833 277.5,467.5C 279.336,466.081 281.336,464.914 283.5,464C 279.789,463.825 276.122,463.325 272.5,462.5C 287.485,461.501 302.485,461.167 317.5,461.5 Z"/></g>
<g><path style="opacity:1" fill="#703eeb" d="M 346.5,449.5 C 346.5,458.833 346.5,468.167 346.5,477.5C 345.281,479.301 343.448,480.301 341,480.5C 338.901,479.713 336.734,479.38 334.5,479.5C 334.753,481.827 334.086,483.827 332.5,485.5C 333.025,486.192 333.692,486.692 334.5,487C 333.207,487.49 331.873,487.657 330.5,487.5C 327.776,484.292 324.442,481.792 320.5,480C 307.327,479.831 294.327,479.331 281.5,478.5C 294.167,478.5 306.833,478.5 319.5,478.5C 320.167,476.167 320.833,473.833 321.5,471.5C 324.807,471.937 327.807,471.27 330.5,469.5C 328.709,468.83 327.042,468.163 325.5,467.5C 333.167,467.167 337.167,463.167 337.5,455.5C 338.302,456.952 338.802,458.618 339,460.5C 339.667,459.167 340.333,459.167 341,460.5C 343.886,457.331 345.719,453.664 346.5,449.5 Z"/></g>
<g><path style="opacity:1" fill="#992df4" d="M 749.5,455.5 C 758.525,467.869 767.191,480.536 775.5,493.5C 775.152,495.713 774.319,497.713 773,499.5C 771.301,498.594 769.467,498.261 767.5,498.5C 767.5,499.5 767.5,500.5 767.5,501.5C 765.784,501.629 764.117,501.962 762.5,502.5C 757.353,496.221 752.687,489.554 748.5,482.5C 748.217,481.711 747.717,481.044 747,480.5C 746.503,482.81 746.337,485.143 746.5,487.5C 744.919,492.271 743.752,497.271 743,502.5C 742.667,502.833 742.333,503.167 742,503.5C 738.697,500.813 736.031,501.479 734,505.5C 733.026,503.122 732.359,503.456 732,506.5C 731.617,505.944 731.117,505.611 730.5,505.5C 730.5,488.833 730.5,472.167 730.5,455.5C 736.833,455.5 743.167,455.5 749.5,455.5 Z"/></g>
<g><path style="opacity:1" fill="#2791f8" d="M 1248.5,457.5 C 1248.5,485.833 1248.5,514.167 1248.5,542.5C 1243.17,542.5 1237.83,542.5 1232.5,542.5C 1232.33,514.165 1232.5,485.831 1233,457.5C 1233.33,467.167 1233.67,476.833 1234,486.5C 1234.33,484.167 1234.67,481.833 1235,479.5C 1235.33,479.833 1235.67,480.167 1236,480.5C 1237.89,478.974 1238.89,476.974 1239,474.5C 1240.99,478.253 1241.82,482.253 1241.5,486.5C 1242.5,486.5 1243.5,486.5 1244.5,486.5C 1244.12,481.703 1244.62,477.036 1246,472.5C 1246.33,481.5 1246.67,490.5 1247,499.5C 1247.17,485.327 1247.67,471.327 1248.5,457.5 Z"/></g>
<g><path style="opacity:1" fill="#f9f7fd" d="M 281.5,477.5 C 281.5,477.833 281.5,478.167 281.5,478.5C 294.327,479.331 307.327,479.831 320.5,480C 324.442,481.792 327.776,484.292 330.5,487.5C 334.418,493.933 338.585,500.267 343,506.5C 343.816,507.823 344.983,508.489 346.5,508.5C 358.66,509.66 370.993,509.827 383.5,509C 385.903,504.419 389.57,501.585 394.5,500.5C 405.967,501.463 410.134,507.463 407,518.5C 404.239,524.131 399.739,526.464 393.5,525.5C 388.721,524.729 385.388,522.062 383.5,517.5C 370.179,516.667 356.846,516.167 343.5,516C 340.642,514.306 338.309,512.139 336.5,509.5C 332.829,504.32 329.329,498.986 326,493.5C 324.281,490.712 322.115,488.379 319.5,486.5C 306.496,486.333 293.496,486.5 280.5,487C 274.767,493.157 269.267,492.99 264,486.5C 263.503,483.854 263.336,481.187 263.5,478.5C 264.625,476.871 265.959,475.371 267.5,474C 272.82,472.743 277.487,473.91 281.5,477.5 Z"/></g>
<g><path style="opacity:1" fill="#b6aaf4" d="M 968.5,463.5 C 973.975,462.511 979.642,462.178 985.5,462.5C 985.5,468.5 985.5,474.5 985.5,480.5C 990.695,480.179 995.695,480.513 1000.5,481.5C 1000.17,481.5 999.833,481.5 999.5,481.5C 994.5,481.5 989.5,481.5 984.5,481.5C 984.5,475.5 984.5,469.5 984.5,463.5C 979.167,463.5 973.833,463.5 968.5,463.5 Z"/></g>
<g><path style="opacity:1" fill="#3e4de5" d="M 464.5,444.5 C 465.331,459.661 465.831,474.995 466,490.5C 466.333,486.5 466.667,482.5 467,478.5C 467.14,481.043 467.806,483.377 469,485.5C 469.187,483.109 470.02,481.942 471.5,482C 470.518,481.619 469.852,480.786 469.5,479.5C 470.509,476.663 472.509,475.33 475.5,475.5C 477.182,473.844 477.848,471.177 477.5,467.5C 479.211,471.774 481.044,476.107 483,480.5C 487.899,487.901 494.732,492.234 503.5,493.5C 511.347,494.705 511.347,496.538 503.5,499C 493.778,499.993 485.445,497.159 478.5,490.5C 478.44,489.957 478.107,489.624 477.5,489.5C 476.502,498.475 476.168,507.475 476.5,516.5C 475.549,515.081 475.216,513.415 475.5,511.5C 474.178,511.33 473.011,511.663 472,512.5C 471.581,511.328 470.915,510.328 470,509.5C 469.259,510.641 468.425,510.641 467.5,509.5C 466.808,510.025 466.308,510.692 466,511.5C 465.828,505.319 465.328,499.319 464.5,493.5C 464.5,477.167 464.5,460.833 464.5,444.5 Z"/></g>
<g><path style="opacity:1" fill="#f4f6fc" d="M 533.5,476.5 C 540.483,477.99 545.983,481.657 550,487.5C 551.84,495.655 549.34,502.155 542.5,507C 537.951,509.228 533.617,511.728 529.5,514.5C 532.768,515.487 536.102,515.82 539.5,515.5C 540.552,515.351 541.552,515.517 542.5,516C 539.211,516.882 535.877,517.548 532.5,518C 533.5,518.333 534.5,518.667 535.5,519C 532.969,525.031 528.635,529.198 522.5,531.5C 519.607,534.804 516.607,537.971 513.5,541C 508.481,541.411 503.481,541.911 498.5,542.5C 486.764,537.712 479.764,529.045 477.5,516.5C 477.174,507.651 477.507,498.984 478.5,490.5C 485.445,497.159 493.778,499.993 503.5,499C 511.347,496.538 511.347,494.705 503.5,493.5C 506.167,493.5 508.833,493.5 511.5,493.5C 511.643,495.262 511.309,496.929 510.5,498.5C 511.167,498.833 511.833,499.167 512.5,499.5C 522.775,497.73 528.275,491.73 529,481.5C 530.255,480.789 531.421,479.956 532.5,479C 531.833,478.667 531.167,478.333 530.5,478C 531.737,477.768 532.737,477.268 533.5,476.5 Z"/></g>
<g><path style="opacity:1" fill="#4d44e6" d="M 400.5,443.5 C 401.682,445.838 403.348,447.838 405.5,449.5C 406.096,457.554 406.93,465.554 408,473.5C 411.07,479.405 415.57,483.738 421.5,486.5C 416.162,488.665 410.828,491.165 405.5,494C 405.833,494.333 406.167,494.667 406.5,495C 404.167,495.333 401.833,495.667 399.5,496C 399.833,496.333 400.167,496.667 400.5,497C 399.167,497.333 397.833,497.667 396.5,498C 396.833,498.333 397.167,498.667 397.5,499C 396.263,499.232 395.263,499.732 394.5,500.5C 389.57,501.585 385.903,504.419 383.5,509C 370.993,509.827 358.66,509.66 346.5,508.5C 356.172,508.666 365.839,508.5 375.5,508C 370.487,507.249 365.82,505.582 361.5,503C 363.081,502.293 364.581,501.46 366,500.5C 365.43,498.307 365.764,496.307 367,494.5C 372.082,495.637 377.249,495.804 382.5,495C 379.65,493.209 376.65,492.042 373.5,491.5C 384.519,492.316 389.019,487.316 387,476.5C 383.63,474.326 381.797,471.326 381.5,467.5C 382.117,467.611 382.617,467.944 383,468.5C 383.49,467.207 383.657,465.873 383.5,464.5C 384.552,464.649 385.552,464.483 386.5,464C 389.837,459.664 394.17,456.83 399.5,455.5C 399.472,453.418 400.139,451.584 401.5,450C 400.833,449.333 400.167,448.667 399.5,448C 400.38,446.644 400.714,445.144 400.5,443.5 Z"/></g>
<g><path style="opacity:1" fill="#354de0" d="M 588.5,452.5 C 589.06,455.713 590.227,458.713 592,461.5C 593.092,459.069 594.259,459.069 595.5,461.5C 591.473,473.544 584.473,483.544 574.5,491.5C 580.787,495.952 586.287,501.286 591,507.5C 594.656,512.949 596.489,518.949 596.5,525.5C 597.562,533.505 595.895,540.838 591.5,547.5C 590.833,542.015 590.167,536.681 589.5,531.5C 588.792,524.769 586.459,518.769 582.5,513.5C 581.094,510.586 579.094,508.086 576.5,506C 572.942,503.054 568.942,500.887 564.5,499.5C 560.014,504.141 555.014,508.307 549.5,512C 546.02,513.103 542.687,514.269 539.5,515.5C 536.102,515.82 532.768,515.487 529.5,514.5C 533.617,511.728 537.951,509.228 542.5,507C 549.34,502.155 551.84,495.655 550,487.5C 545.983,481.657 540.483,477.99 533.5,476.5C 532.791,475.596 531.791,475.263 530.5,475.5C 530.5,474.5 530.5,473.5 530.5,472.5C 543.29,471.401 553.957,475.568 562.5,485C 563.5,485.667 564.5,485.667 565.5,485C 576.875,476.792 584.542,465.958 588.5,452.5 Z"/></g>
<g><path style="opacity:1" fill="#b98af6" d="M 858.5,480.5 C 852.797,480.375 847.13,480.708 841.5,481.5C 844.526,479.981 847.859,479.315 851.5,479.5C 854.025,479.503 856.359,479.837 858.5,480.5 Z"/></g>
<g><path style="opacity:1" fill="#9974f4" d="M 925.5,480.5 C 919.378,480.268 913.378,480.935 907.5,482.5C 913.272,479.52 919.272,478.853 925.5,480.5 Z"/></g>
<g><path style="opacity:1" fill="#6c3ef1" d="M 925.5,480.5 C 935.021,481.093 942.688,485.093 948.5,492.5C 950.17,495.781 950.504,499.114 949.5,502.5C 945.574,502.047 942.408,503.38 940,506.5C 939.388,511.582 938.555,515.249 937.5,517.5C 940.142,499.981 932.809,492.148 915.5,494C 910.6,495.902 907.433,499.402 906,504.5C 905.501,508.821 905.334,513.154 905.5,517.5C 903.772,521.153 904.438,524.32 907.5,527C 905.192,529.724 902.192,531.224 898.5,531.5C 897.614,530.675 897.281,529.675 897.5,528.5C 895.435,528.483 893.435,528.15 891.5,527.5C 887.052,515.949 887.552,504.616 893,493.5C 896.878,488.44 901.711,484.774 907.5,482.5C 913.378,480.935 919.378,480.268 925.5,480.5 Z"/></g>
<g><path style="opacity:1" fill="#4a4df4" d="M 1027.5,481.5 C 1027.5,501.833 1027.5,522.167 1027.5,542.5C 1022.17,542.5 1016.83,542.5 1011.5,542.5C 1011.5,522.167 1011.5,501.833 1011.5,481.5C 1016.83,481.5 1022.17,481.5 1027.5,481.5 Z"/></g>
<g><path style="opacity:1" fill="#2f90f8" d="M 1220.5,541.5 C 1214.69,542.49 1208.69,542.823 1202.5,542.5C 1200.51,536.857 1198.51,531.19 1196.5,525.5C 1184.52,524.501 1172.52,524.168 1160.5,524.5C 1171.33,523.67 1182.33,523.17 1193.5,523C 1191.83,522.667 1190.17,522.333 1188.5,522C 1188.83,521.667 1189.17,521.333 1189.5,521C 1187.67,518.474 1185.67,516.14 1183.5,514C 1184.5,513.667 1185.5,513.333 1186.5,513C 1181.83,512.667 1177.17,512.333 1172.5,512C 1179.9,511.882 1185.9,511.382 1190.5,510.5C 1190.74,509.209 1190.4,508.209 1189.5,507.5C 1186.36,496.569 1182.52,485.902 1178,475.5C 1173.72,486.834 1169.56,498.168 1165.5,509.5C 1165.84,510.338 1166.51,510.672 1167.5,510.5C 1168.26,511.268 1169.26,511.768 1170.5,512C 1168.83,512.333 1167.17,512.667 1165.5,513C 1167.01,519.709 1164.68,521.209 1158.5,517.5C 1156.95,512.635 1154.79,512.302 1152,516.5C 1151.54,510.825 1150.87,510.492 1150,515.5C 1149.76,513.881 1148.93,512.881 1147.5,512.5C 1154.32,494.188 1161.15,475.854 1168,457.5C 1174.74,456.521 1181.58,456.188 1188.5,456.5C 1199.17,484.833 1209.83,513.167 1220.5,541.5 Z"/></g>
<g><path style="opacity:1" fill="#f7fafd" d="M 1189.5,507.5 C 1181.9,509.467 1173.9,510.134 1165.5,509.5C 1169.56,498.168 1173.72,486.834 1178,475.5C 1182.52,485.902 1186.36,496.569 1189.5,507.5 Z"/></g>
<g><path style="opacity:1" fill="#7234eb" d="M 263.5,478.5 C 263.336,481.187 263.503,483.854 264,486.5C 269.267,492.99 274.767,493.157 280.5,487C 293.496,486.5 306.496,486.333 319.5,486.5C 319.173,489.511 317.839,492.011 315.5,494C 313.392,494.36 311.392,495.027 309.5,496C 310.337,497.011 310.67,498.178 310.5,499.5C 307.927,499.148 305.594,499.648 303.5,501C 304.5,501.333 305.5,501.667 306.5,502C 307.738,502.69 307.738,503.19 306.5,503.5C 290.163,503.667 273.83,503.5 257.5,503C 257.167,502.667 256.833,502.333 256.5,502C 258.9,501.814 261.234,501.314 263.5,500.5C 261.726,499.813 260.059,498.98 258.5,498C 258.806,496.173 260.306,495.006 263,494.5C 263.755,491.503 262.922,489.003 260.5,487C 261.996,484.286 262.996,481.453 263.5,478.5 Z"/></g>
<g><path style="opacity:1" fill="#8e31f2" d="M 793.5,455.5 C 798.833,455.5 804.167,455.5 809.5,455.5C 809.5,463.833 809.5,472.167 809.5,480.5C 808.833,487.345 808.167,494.345 807.5,501.5C 806.667,502.5 805.833,503.5 805,504.5C 801.961,503.034 799.128,503.367 796.5,505.5C 795.111,510.416 794.111,514.75 793.5,518.5C 793.5,497.5 793.5,476.5 793.5,455.5 Z"/></g>
<g><path style="opacity:1" fill="#435bf1" d="M 1060.5,486.5 C 1060.47,489.199 1061.13,491.699 1062.5,494C 1060.99,498.941 1061.33,503.775 1063.5,508.5C 1062.74,509.719 1061.74,510.719 1060.5,511.5C 1060.98,515.812 1062.98,519.145 1066.5,521.5C 1067.13,522.417 1067.46,523.417 1067.5,524.5C 1063.83,530.5 1060.17,536.5 1056.5,542.5C 1050.31,542.823 1044.31,542.49 1038.5,541.5C 1045.57,531.765 1052.24,521.765 1058.5,511.5C 1052.09,501.699 1045.43,492.032 1038.5,482.5C 1044.81,481.336 1051.14,481.169 1057.5,482C 1058.88,483.271 1059.88,484.771 1060.5,486.5 Z"/></g>
<g><path style="opacity:1" fill="#d2b2f9" d="M 792.5,455.5 C 798.31,454.51 804.31,454.177 810.5,454.5C 810.5,484.167 810.5,513.833 810.5,543.5C 803.313,543.825 796.313,543.491 789.5,542.5C 796.167,542.5 802.833,542.5 809.5,542.5C 809.5,521.833 809.5,501.167 809.5,480.5C 809.5,472.167 809.5,463.833 809.5,455.5C 804.167,455.5 798.833,455.5 793.5,455.5C 793.167,455.5 792.833,455.5 792.5,455.5 Z"/></g>
<g><path style="opacity:1" fill="#3d48de" d="M 421.5,486.5 C 430.349,486.174 439.016,486.507 447.5,487.5C 447.667,499.838 447.5,512.171 447,524.5C 446.667,519.5 446.333,514.5 446,509.5C 443.834,513.086 440.834,515.753 437,517.5C 437.931,519.004 438.598,520.671 439,522.5C 437.586,523.413 436.086,523.413 434.5,522.5C 428.46,519.276 422.96,519.943 418,524.5C 415.832,529.482 416.332,534.149 419.5,538.5C 419.785,540.288 419.452,541.955 418.5,543.5C 416.412,545.428 414.912,547.761 414,550.5C 412.011,552.839 409.511,554.173 406.5,554.5C 401.802,545.123 394.469,539.123 384.5,536.5C 385.8,535.892 387.133,535.225 388.5,534.5C 389.369,535.392 390.369,535.892 391.5,536C 393.278,533.865 393.945,531.365 393.5,528.5C 395.288,528.785 396.955,528.452 398.5,527.5C 396.709,526.83 395.042,526.163 393.5,525.5C 399.739,526.464 404.239,524.131 407,518.5C 410.134,507.463 405.967,501.463 394.5,500.5C 395.263,499.732 396.263,499.232 397.5,499C 397.167,498.667 396.833,498.333 396.5,498C 397.833,497.667 399.167,497.333 400.5,497C 400.167,496.667 399.833,496.333 399.5,496C 401.833,495.667 404.167,495.333 406.5,495C 406.167,494.667 405.833,494.333 405.5,494C 410.828,491.165 416.162,488.665 421.5,486.5 Z"/></g>
<g><path style="opacity:1" fill="#9fd5fa" d="M 1248.5,456.5 C 1249.5,485.329 1249.83,514.329 1249.5,543.5C 1243.31,543.823 1237.31,543.49 1231.5,542.5C 1231.83,542.5 1232.17,542.5 1232.5,542.5C 1237.83,542.5 1243.17,542.5 1248.5,542.5C 1248.5,514.167 1248.5,485.833 1248.5,457.5C 1248.5,457.167 1248.5,456.833 1248.5,456.5 Z"/></g>
<g><path style="opacity:1" fill="#a154ed" d="M 792.5,455.5 C 792.833,455.5 793.167,455.5 793.5,455.5C 793.5,476.5 793.5,497.5 793.5,518.5C 792.167,518.5 791.5,517.833 791.5,516.5C 792.497,496.34 792.83,476.007 792.5,455.5 Z"/></g>
<g><path style="opacity:1" fill="#563de7" d="M 346.5,477.5 C 348.973,480.804 351.973,483.638 355.5,486C 359.5,486.333 363.5,486.667 367.5,487C 369.095,489.102 371.095,490.602 373.5,491.5C 376.65,492.042 379.65,493.209 382.5,495C 377.249,495.804 372.082,495.637 367,494.5C 365.764,496.307 365.43,498.307 366,500.5C 364.581,501.46 363.081,502.293 361.5,503C 365.82,505.582 370.487,507.249 375.5,508C 365.839,508.5 356.172,508.666 346.5,508.5C 344.983,508.489 343.816,507.823 343,506.5C 338.585,500.267 334.418,493.933 330.5,487.5C 331.873,487.657 333.207,487.49 334.5,487C 333.692,486.692 333.025,486.192 332.5,485.5C 334.086,483.827 334.753,481.827 334.5,479.5C 336.734,479.38 338.901,479.713 341,480.5C 343.448,480.301 345.281,479.301 346.5,477.5 Z"/></g>
<g><path style="opacity:1" fill="#8578ee" d="M 999.5,481.5 C 999.833,481.5 1000.17,481.5 1000.5,481.5C 1000.5,485.5 1000.5,489.5 1000.5,493.5C 995.5,493.5 990.5,493.5 985.5,493.5C 989.97,492.514 994.637,492.181 999.5,492.5C 999.5,488.833 999.5,485.167 999.5,481.5 Z"/></g>
<g><path style="opacity:1" fill="#fbfafd" d="M 937.5,517.5 C 933.192,529.986 924.858,533.82 912.5,529C 908.979,525.775 906.646,521.942 905.5,517.5C 905.334,513.154 905.501,508.821 906,504.5C 907.433,499.402 910.6,495.902 915.5,494C 932.809,492.148 940.142,499.981 937.5,517.5 Z"/></g>
<g><path style="opacity:1" fill="#dbe3f7" d="M 662.5,506.5 C 661.151,512.197 659.318,517.863 657,523.5C 646.345,512.048 644.178,513.382 650.5,527.5C 649.423,530.526 649.423,533.526 650.5,536.5C 647.833,540.167 645.167,543.833 642.5,547.5C 634.858,553.629 627.358,559.963 620,566.5C 619.209,565.255 618.709,563.922 618.5,562.5C 622.647,552.45 623.48,542.117 621,531.5C 620.163,529.156 618.829,527.156 617,525.5C 617.297,563.208 598.797,579.708 561.5,575C 557.493,573.663 553.827,571.83 550.5,569.5C 552.417,568.254 554.25,567.587 556,567.5C 561.746,572.058 568.246,573.891 575.5,573C 578.351,569.303 580.351,565.136 581.5,560.5C 582.5,559.5 583.5,558.5 584.5,557.5C 584.291,556.914 583.957,556.414 583.5,556C 585.705,554.294 588.038,552.794 590.5,551.5C 589.538,544.892 589.205,538.226 589.5,531.5C 590.167,536.681 590.833,542.015 591.5,547.5C 595.895,540.838 597.562,533.505 596.5,525.5C 597.363,530.019 598.197,534.685 599,539.5C 599.953,536.568 600.453,533.568 600.5,530.5C 601.822,530.67 602.989,530.337 604,529.5C 605.903,526.829 606.736,523.829 606.5,520.5C 608.527,520.662 610.527,520.495 612.5,520C 610.122,519.026 610.456,518.359 613.5,518C 612.179,516.455 612.512,515.289 614.5,514.5C 615.262,515.628 615.929,516.795 616.5,518C 619.964,518.817 623.298,518.483 626.5,517C 624.19,516.503 621.857,516.337 619.5,516.5C 619.433,514.599 619.767,512.766 620.5,511C 623.441,507.942 626.274,504.776 629,501.5C 628.489,494.443 630.656,493.109 635.5,497.5C 632.295,503.208 628.128,508.208 623,512.5C 622.312,513.332 622.479,513.998 623.5,514.5C 641.455,507.351 651.288,494.018 653,474.5C 660.189,483.915 663.356,494.582 662.5,506.5 Z"/></g>
<g><path style="opacity:1" fill="#f2e5fc" d="M 792.5,455.5 C 792.83,476.007 792.497,496.34 791.5,516.5C 791.167,515.833 790.833,515.167 790.5,514.5C 791.167,494.833 791.833,475.167 792.5,455.5 Z"/></g>
<g><path style="opacity:1" fill="#d6b6f6" d="M 748.5,482.5 C 747.833,502.833 747.167,523.167 746.5,543.5C 746.5,543.167 746.5,542.833 746.5,542.5C 746.5,524.167 746.5,505.833 746.5,487.5C 746.337,485.143 746.503,482.81 747,480.5C 747.717,481.044 748.217,481.711 748.5,482.5 Z"/></g>
<g><path style="opacity:1" fill="#7f33f0" d="M 809.5,480.5 C 809.5,501.167 809.5,521.833 809.5,542.5C 802.833,542.5 796.167,542.5 789.5,542.5C 780.5,529.167 771.5,515.833 762.5,502.5C 764.117,501.962 765.784,501.629 767.5,501.5C 767.5,500.5 767.5,499.5 767.5,498.5C 769.467,498.261 771.301,498.594 773,499.5C 774.319,497.713 775.152,495.713 775.5,493.5C 780.733,500.286 785.733,507.286 790.5,514.5C 790.833,515.167 791.167,515.833 791.5,516.5C 791.5,517.833 792.167,518.5 793.5,518.5C 794.111,514.75 795.111,510.416 796.5,505.5C 799.128,503.367 801.961,503.034 805,504.5C 805.833,503.5 806.667,502.5 807.5,501.5C 808.167,494.345 808.833,487.345 809.5,480.5 Z"/></g>
<g><path style="opacity:1" fill="#a3b2ed" d="M 478.5,490.5 C 477.507,498.984 477.174,507.651 477.5,516.5C 477.167,516.5 476.833,516.5 476.5,516.5C 476.168,507.475 476.502,498.475 477.5,489.5C 478.107,489.624 478.44,489.957 478.5,490.5 Z"/></g>
<g><path style="opacity:1" fill="#eaeffa" d="M 582.5,513.5 C 581.931,516.335 580.264,518.001 577.5,518.5C 576.66,524.014 574.327,528.847 570.5,533C 571.167,533.333 571.833,533.667 572.5,534C 569.833,535 567.167,536 564.5,537C 565.5,537.333 566.5,537.667 567.5,538C 565.667,539.5 563.833,541 562,542.5C 559.564,545.755 557.23,549.755 555,554.5C 553.984,553.366 553.317,553.699 553,555.5C 552.311,554.643 551.478,553.977 550.5,553.5C 550.968,555.113 550.301,556.613 548.5,558C 546.302,558.373 544.135,558.873 542,559.5C 540.418,557.971 538.585,557.471 536.5,558C 537.167,558.333 537.833,558.667 538.5,559C 536.368,560.62 536.035,562.454 537.5,564.5C 536.811,565.774 535.977,565.774 535,564.5C 534.667,563.167 534.333,561.833 534,560.5C 531.944,561.583 530.611,563.25 530,565.5C 529.667,565.167 529.333,564.833 529,564.5C 524.569,573.071 520.069,580.904 515.5,588C 508.509,588.745 502.842,590.245 498.5,592.5C 486.205,587.284 479.205,577.951 477.5,564.5C 477.175,556.648 477.508,548.982 478.5,541.5C 490.056,552.884 503.389,555.384 518.5,549C 521.756,547.541 524.423,545.374 526.5,542.5C 525.833,542.167 525.167,541.833 524.5,541.5C 518.944,543.145 513.277,544.145 507.5,544.5C 504.186,544.657 501.186,543.991 498.5,542.5C 503.481,541.911 508.481,541.411 513.5,541C 516.607,537.971 519.607,534.804 522.5,531.5C 528.635,529.198 532.969,525.031 535.5,519C 534.5,518.667 533.5,518.333 532.5,518C 535.877,517.548 539.211,516.882 542.5,516C 541.552,515.517 540.552,515.351 539.5,515.5C 542.687,514.269 546.02,513.103 549.5,512C 555.014,508.307 560.014,504.141 564.5,499.5C 568.942,500.887 572.942,503.054 576.5,506C 579.094,508.086 581.094,510.586 582.5,513.5 Z"/></g>
<g><path style="opacity:1" fill="#aacff5" d="M 1189.5,507.5 C 1190.4,508.209 1190.74,509.209 1190.5,510.5C 1182.83,510.5 1175.17,510.5 1167.5,510.5C 1166.51,510.672 1165.84,510.338 1165.5,509.5C 1173.9,510.134 1181.9,509.467 1189.5,507.5 Z"/></g>
<g><path style="opacity:1" fill="#7439f0" d="M 858.5,480.5 C 875.882,485.56 883.548,497.227 881.5,515.5C 866.5,515.5 851.5,515.5 836.5,515.5C 836.216,517.415 836.549,519.081 837.5,520.5C 842.544,532.571 850.878,535.404 862.5,529C 864.351,527.316 866.018,525.483 867.5,523.5C 871.743,526.024 876.076,528.357 880.5,530.5C 869.7,543.597 856.034,547.764 839.5,543C 828.623,538.791 822.123,530.957 820,519.5C 817.122,500.903 824.289,488.237 841.5,481.5C 847.13,480.708 852.797,480.375 858.5,480.5 Z"/></g>
<g><path style="opacity:1" fill="#e3d8fb" d="M 864.5,502.5 C 865.404,503.209 865.737,504.209 865.5,505.5C 855.81,505.832 846.144,505.498 836.5,504.5C 836.624,503.893 836.957,503.56 837.5,503.5C 841.82,504.166 846.32,504.499 851,504.5C 855.886,504.493 860.386,503.826 864.5,502.5 Z"/></g>
<g><path style="opacity:1" fill="#faf9fd" d="M 864.5,502.5 C 860.386,503.826 855.886,504.493 851,504.5C 846.32,504.499 841.82,504.166 837.5,503.5C 838.703,495.957 843.203,491.957 851,491.5C 859.042,491.076 863.542,494.743 864.5,502.5 Z"/></g>
<g><path style="opacity:1" fill="#6039e7" d="M 319.5,486.5 C 322.115,488.379 324.281,490.712 326,493.5C 329.329,498.986 332.829,504.32 336.5,509.5C 337.562,511.556 337.229,513.556 335.5,515.5C 330.17,516.946 327.17,520.279 326.5,525.5C 321.811,520.297 317.644,514.63 314,508.5C 311.842,506.506 309.342,505.172 306.5,504.5C 306.5,504.167 306.5,503.833 306.5,503.5C 307.738,503.19 307.738,502.69 306.5,502C 305.5,501.667 304.5,501.333 303.5,501C 305.594,499.648 307.927,499.148 310.5,499.5C 310.67,498.178 310.337,497.011 309.5,496C 311.392,495.027 313.392,494.36 315.5,494C 317.839,492.011 319.173,489.511 319.5,486.5 Z"/></g>
<g><path style="opacity:1" fill="#8431f1" d="M 746.5,487.5 C 746.5,505.833 746.5,524.167 746.5,542.5C 741.167,542.5 735.833,542.5 730.5,542.5C 730.5,530.167 730.5,517.833 730.5,505.5C 731.117,505.611 731.617,505.944 732,506.5C 732.359,503.456 733.026,503.122 734,505.5C 736.031,501.479 738.697,500.813 742,503.5C 742.333,503.167 742.667,502.833 743,502.5C 743.752,497.271 744.919,492.271 746.5,487.5 Z"/></g>
<g><path style="opacity:1" fill="#2c86f6" d="M 1167.5,510.5 C 1175.17,510.5 1182.83,510.5 1190.5,510.5C 1185.9,511.382 1179.9,511.882 1172.5,512C 1177.17,512.333 1181.83,512.667 1186.5,513C 1185.5,513.333 1184.5,513.667 1183.5,514C 1185.67,516.14 1187.67,518.474 1189.5,521C 1189.17,521.333 1188.83,521.667 1188.5,522C 1190.17,522.333 1191.83,522.667 1193.5,523C 1182.33,523.17 1171.33,523.67 1160.5,524.5C 1157.93,530.216 1155.93,536.216 1154.5,542.5C 1148.31,542.823 1142.31,542.49 1136.5,541.5C 1139.6,531.524 1143.27,521.858 1147.5,512.5C 1148.93,512.881 1149.76,513.881 1150,515.5C 1150.87,510.492 1151.54,510.825 1152,516.5C 1154.79,512.302 1156.95,512.635 1158.5,517.5C 1164.68,521.209 1167.01,519.709 1165.5,513C 1167.17,512.667 1168.83,512.333 1170.5,512C 1169.26,511.768 1168.26,511.268 1167.5,510.5 Z"/></g>
<g><path style="opacity:1" fill="#3f62f2" d="M 1100.5,541.5 C 1094.69,542.49 1088.69,542.823 1082.5,542.5C 1078.5,535.844 1074,529.511 1069,523.5C 1068.62,524.056 1068.12,524.389 1067.5,524.5C 1067.46,523.417 1067.13,522.417 1066.5,521.5C 1062.98,519.145 1060.98,515.812 1060.5,511.5C 1061.74,510.719 1062.74,509.719 1063.5,508.5C 1061.33,503.775 1060.99,498.941 1062.5,494C 1061.13,491.699 1060.47,489.199 1060.5,486.5C 1063.89,490.928 1067.06,495.594 1070,500.5C 1073.58,494.331 1077.42,488.331 1081.5,482.5C 1087.81,481.336 1094.14,481.169 1100.5,482C 1093.5,491.667 1086.5,501.333 1079.5,511C 1086.39,521.283 1093.39,531.449 1100.5,541.5 Z"/></g>
<g><path style="opacity:1" fill="#9873ef" d="M 881.5,515.5 C 867.01,516.496 852.343,516.829 837.5,516.5C 837.5,517.833 837.5,519.167 837.5,520.5C 836.549,519.081 836.216,517.415 836.5,515.5C 851.5,515.5 866.5,515.5 881.5,515.5 Z"/></g>
<g><path style="opacity:1" fill="#a4acf5" d="M 1027.5,481.5 C 1028.5,501.993 1028.83,522.66 1028.5,543.5C 1022.64,543.822 1016.98,543.489 1011.5,542.5C 1016.83,542.5 1022.17,542.5 1027.5,542.5C 1027.5,522.167 1027.5,501.833 1027.5,481.5 Z"/></g>
<g><path style="opacity:1" fill="#6439e8" d="M 329.5,539.5 C 328.167,540.167 326.833,540.833 325.5,541.5C 321.154,541.666 316.821,541.499 312.5,541C 310.147,538.3 308.647,535.134 308,531.5C 306.127,529.291 303.96,527.458 301.5,526C 294.5,525.667 287.5,525.333 280.5,525C 274.982,517.979 269.482,517.812 264,524.5C 262.337,533.167 265.837,537 274.5,536C 276.792,534.71 278.792,533.043 280.5,531C 286.5,530.333 292.5,530.333 298.5,531C 300.792,534.416 302.959,537.916 305,541.5C 306.214,543.049 307.714,544.215 309.5,545C 317.493,545.5 325.493,545.666 333.5,545.5C 326.011,546.329 318.344,546.829 310.5,547C 308.507,548.999 306.173,550.499 303.5,551.5C 302.914,551.291 302.414,550.957 302,550.5C 301.809,552.708 301.309,554.708 300.5,556.5C 300.89,546.833 296.223,543 286.5,545C 282.097,547.623 280.431,551.457 281.5,556.5C 281.5,557.5 281.5,558.5 281.5,559.5C 278.482,560.672 275.815,562.339 273.5,564.5C 272.671,560.875 271.838,557.208 271,553.5C 256.966,543.098 250.133,529.098 250.5,511.5C 269.17,511.333 287.836,511.5 306.5,512C 307.931,512.465 309.097,513.299 310,514.5C 315.087,522.341 320.42,530.008 326,537.5C 327.113,538.305 328.279,538.972 329.5,539.5 Z"/></g>
<g><path style="opacity:1" fill="#4f44e3" d="M 336.5,509.5 C 338.309,512.139 340.642,514.306 343.5,516C 356.846,516.167 370.179,516.667 383.5,517.5C 385.388,522.062 388.721,524.729 393.5,525.5C 395.042,526.163 396.709,526.83 398.5,527.5C 396.955,528.452 395.288,528.785 393.5,528.5C 393.945,531.365 393.278,533.865 391.5,536C 390.369,535.892 389.369,535.392 388.5,534.5C 387.133,535.225 385.8,535.892 384.5,536.5C 368.497,536.667 352.497,536.5 336.5,536C 331.617,533.951 328.283,530.451 326.5,525.5C 327.17,520.279 330.17,516.946 335.5,515.5C 337.229,513.556 337.562,511.556 336.5,509.5 Z"/></g>
<g><path style="opacity:1" fill="#e2e9f8" d="M 582.5,513.5 C 586.459,518.769 588.792,524.769 589.5,531.5C 589.205,538.226 589.538,544.892 590.5,551.5C 588.038,552.794 585.705,554.294 583.5,556C 583.957,556.414 584.291,556.914 584.5,557.5C 583.5,558.5 582.5,559.5 581.5,560.5C 580.351,565.136 578.351,569.303 575.5,573C 568.246,573.891 561.746,572.058 556,567.5C 554.25,567.587 552.417,568.254 550.5,569.5C 545.951,567.131 541.785,564.131 538,560.5C 537.51,561.793 537.343,563.127 537.5,564.5C 536.035,562.454 536.368,560.62 538.5,559C 537.833,558.667 537.167,558.333 536.5,558C 538.585,557.471 540.418,557.971 542,559.5C 544.135,558.873 546.302,558.373 548.5,558C 550.301,556.613 550.968,555.113 550.5,553.5C 551.478,553.977 552.311,554.643 553,555.5C 553.317,553.699 553.984,553.366 555,554.5C 557.23,549.755 559.564,545.755 562,542.5C 563.833,541 565.667,539.5 567.5,538C 566.5,537.667 565.5,537.333 564.5,537C 567.167,536 569.833,535 572.5,534C 571.833,533.667 571.167,533.333 570.5,533C 574.327,528.847 576.66,524.014 577.5,518.5C 580.264,518.001 581.931,516.335 582.5,513.5 Z"/></g>
<g><path style="opacity:1" fill="#5746f0" d="M 968.5,463.5 C 973.833,463.5 979.167,463.5 984.5,463.5C 984.5,469.5 984.5,475.5 984.5,481.5C 989.5,481.5 994.5,481.5 999.5,481.5C 999.5,485.167 999.5,488.833 999.5,492.5C 994.637,492.181 989.97,492.514 985.5,493.5C 984.341,504.326 984.174,515.326 985,526.5C 985.465,527.931 986.299,529.097 987.5,530C 991.486,530.499 995.486,530.666 999.5,530.5C 1000.16,534.466 1000.5,538.466 1000.5,542.5C 992.852,543.43 985.185,543.597 977.5,543C 973.183,540.685 970.35,537.185 969,532.5C 968.5,519.504 968.333,506.504 968.5,493.5C 965.167,493.5 961.833,493.5 958.5,493.5C 958.5,489.5 958.5,485.5 958.5,481.5C 961.833,481.5 965.167,481.5 968.5,481.5C 968.5,475.5 968.5,469.5 968.5,463.5 Z"/></g>
<g><path style="opacity:1" fill="#f6f6fc" d="M 434.5,522.5 C 438.758,528.274 438.424,533.774 433.5,539C 432.552,539.483 431.552,539.649 430.5,539.5C 430.5,556.167 430.5,572.833 430.5,589.5C 428.977,594.017 426.311,597.85 422.5,601C 416.913,604.71 411.413,608.543 406,612.5C 406.026,622.394 401.192,626.561 391.5,625C 389.598,623.27 387.931,621.437 386.5,619.5C 385.431,614.457 387.097,610.623 391.5,608C 395.213,607.595 398.879,607.595 402.5,608C 407.5,604.333 412.5,600.667 417.5,597C 420.106,595.062 421.939,592.562 423,589.5C 423.833,573.156 423.666,556.823 422.5,540.5C 421.482,539.807 420.482,539.141 419.5,538.5C 416.332,534.149 415.832,529.482 418,524.5C 422.96,519.943 428.46,519.276 434.5,522.5 Z"/></g>
<g><path style="opacity:1" fill="#a85cf2" d="M 749.5,455.5 C 743.167,455.5 736.833,455.5 730.5,455.5C 730.5,472.167 730.5,488.833 730.5,505.5C 730.5,517.833 730.5,530.167 730.5,542.5C 735.833,542.5 741.167,542.5 746.5,542.5C 746.5,542.833 746.5,543.167 746.5,543.5C 740.833,543.5 735.167,543.5 729.5,543.5C 729.5,513.833 729.5,484.167 729.5,454.5C 736.354,454.176 743.021,454.509 749.5,455.5 Z"/></g>
<g><path style="opacity:1" fill="#2c46d3" d="M 447.5,487.5 C 448.498,510.661 448.831,533.994 448.5,557.5C 447.675,561.647 447.175,565.981 447,570.5C 446.781,569.062 446.281,567.729 445.5,566.5C 441.471,568.213 438.305,567.213 436,563.5C 435.333,564.833 434.667,566.167 434,567.5C 433.299,576.264 432.132,583.597 430.5,589.5C 430.5,572.833 430.5,556.167 430.5,539.5C 431.552,539.649 432.552,539.483 433.5,539C 438.424,533.774 438.758,528.274 434.5,522.5C 436.086,523.413 437.586,523.413 439,522.5C 438.598,520.671 437.931,519.004 437,517.5C 440.834,515.753 443.834,513.086 446,509.5C 446.333,514.5 446.667,519.5 447,524.5C 447.5,512.171 447.667,499.838 447.5,487.5 Z"/></g>
<g><path style="opacity:1" fill="#2f4ad8" d="M 464.5,493.5 C 465.328,499.319 465.828,505.319 466,511.5C 466.308,510.692 466.808,510.025 467.5,509.5C 468.425,510.641 469.259,510.641 470,509.5C 470.915,510.328 471.581,511.328 472,512.5C 473.011,511.663 474.178,511.33 475.5,511.5C 475.216,513.415 475.549,515.081 476.5,516.5C 476.833,516.5 477.167,516.5 477.5,516.5C 479.764,529.045 486.764,537.712 498.5,542.5C 501.186,543.991 504.186,544.657 507.5,544.5C 513.277,544.145 518.944,543.145 524.5,541.5C 525.167,541.833 525.833,542.167 526.5,542.5C 524.423,545.374 521.756,547.541 518.5,549C 503.389,555.384 490.056,552.884 478.5,541.5C 478.44,540.957 478.107,540.624 477.5,540.5C 476.502,548.472 476.169,556.472 476.5,564.5C 475.731,560.877 475.064,555.877 474.5,549.5C 472.733,546.963 471.233,544.297 470,541.5C 469.311,542.357 468.478,543.023 467.5,543.5C 466.671,548.467 466.171,553.467 466,558.5C 465.826,553.316 465.326,548.316 464.5,543.5C 464.5,526.833 464.5,510.167 464.5,493.5 Z"/></g>
<g><path style="opacity:1" fill="#5d45f1" d="M 948.5,492.5 C 951.564,495.824 953.397,499.824 954,504.5C 955.196,533.302 941.363,546.468 912.5,544C 903.165,541.348 896.165,535.848 891.5,527.5C 893.435,528.15 895.435,528.483 897.5,528.5C 897.281,529.675 897.614,530.675 898.5,531.5C 902.192,531.224 905.192,529.724 907.5,527C 904.438,524.32 903.772,521.153 905.5,517.5C 906.646,521.942 908.979,525.775 912.5,529C 924.858,533.82 933.192,529.986 937.5,517.5C 938.555,515.249 939.388,511.582 940,506.5C 942.408,503.38 945.574,502.047 949.5,502.5C 950.504,499.114 950.17,495.781 948.5,492.5 Z"/></g>
<g><path style="opacity:1" fill="#c8bbf4" d="M 329.5,539.5 C 330.473,539.987 331.473,540.487 332.5,541C 330.19,541.497 327.857,541.663 325.5,541.5C 326.833,540.833 328.167,540.167 329.5,539.5 Z"/></g>
<g><path style="opacity:1" fill="#8b9cf6" d="M 1038.5,541.5 C 1044.31,542.49 1050.31,542.823 1056.5,542.5C 1050.32,543.817 1043.99,543.817 1037.5,542.5C 1037.62,541.893 1037.96,541.56 1038.5,541.5 Z"/></g>
<g><path style="opacity:1" fill="#89a3f4" d="M 1100.5,541.5 C 1101.04,541.56 1101.38,541.893 1101.5,542.5C 1095.01,543.817 1088.68,543.817 1082.5,542.5C 1088.69,542.823 1094.69,542.49 1100.5,541.5 Z"/></g>
<g><path style="opacity:1" fill="#84baf7" d="M 1136.5,541.5 C 1142.31,542.49 1148.31,542.823 1154.5,542.5C 1148.32,543.817 1141.99,543.817 1135.5,542.5C 1135.62,541.893 1135.96,541.56 1136.5,541.5 Z"/></g>
<g><path style="opacity:1" fill="#85c2f6" d="M 1220.5,541.5 C 1221.04,541.56 1221.38,541.893 1221.5,542.5C 1215.01,543.817 1208.68,543.817 1202.5,542.5C 1208.69,542.823 1214.69,542.49 1220.5,541.5 Z"/></g>
<g><path style="opacity:1" fill="#f7f7fc" d="M 300.5,556.5 C 301.706,559.298 303.706,561.465 306.5,563C 323.167,563.667 339.833,563.667 356.5,563C 359.466,556.527 364.466,553.693 371.5,554.5C 381.512,558.209 384.012,564.875 379,574.5C 376.83,576.823 374.33,578.49 371.5,579.5C 365.249,579.708 360.249,577.208 356.5,572C 339.833,571.667 323.167,571.333 306.5,571C 302.928,569.431 299.928,567.098 297.5,564C 293.381,563.857 289.381,563.19 285.5,562C 283.531,560.5 282.198,558.667 281.5,556.5C 280.431,551.457 282.097,547.623 286.5,545C 296.223,543 300.89,546.833 300.5,556.5 Z"/></g>
<g><path style="opacity:1" fill="#483ce2" d="M 379.5,544.5 C 375.322,545.406 370.988,546.24 366.5,547C 365.328,547.419 364.328,548.085 363.5,549C 366.615,551.117 369.948,552.784 373.5,554C 372.906,554.464 372.239,554.631 371.5,554.5C 364.466,553.693 359.466,556.527 356.5,563C 339.833,563.667 323.167,563.667 306.5,563C 303.706,561.465 301.706,559.298 300.5,556.5C 301.309,554.708 301.809,552.708 302,550.5C 302.414,550.957 302.914,551.291 303.5,551.5C 306.173,550.499 308.507,548.999 310.5,547C 318.344,546.829 326.011,546.329 333.5,545.5C 348.658,544.504 363.991,544.17 379.5,544.5 Z"/></g>
<g><path style="opacity:1" fill="#95adea" d="M 478.5,541.5 C 477.508,548.982 477.175,556.648 477.5,564.5C 477.167,564.5 476.833,564.5 476.5,564.5C 476.169,556.472 476.502,548.472 477.5,540.5C 478.107,540.624 478.44,540.957 478.5,541.5 Z"/></g>
<g><path style="opacity:1" fill="#3846d7" d="M 379.5,544.5 C 395.942,547.796 402.776,557.796 400,574.5C 397.071,583.096 391.237,588.596 382.5,591C 373.657,591.824 364.99,591.657 356.5,590.5C 364.84,590.666 373.173,590.5 381.5,590C 377.358,589.273 373.358,588.273 369.5,587C 370.833,586.333 370.833,585.667 369.5,585C 373.33,584.593 373.997,583.26 371.5,581C 374.097,580.221 374.097,579.721 371.5,579.5C 374.33,578.49 376.83,576.823 379,574.5C 384.012,564.875 381.512,558.209 371.5,554.5C 372.239,554.631 372.906,554.464 373.5,554C 369.948,552.784 366.615,551.117 363.5,549C 364.328,548.085 365.328,547.419 366.5,547C 370.988,546.24 375.322,545.406 379.5,544.5 Z"/></g>
<g><path style="opacity:1" fill="#433edd" d="M 281.5,556.5 C 282.198,558.667 283.531,560.5 285.5,562C 289.381,563.19 293.381,563.857 297.5,564C 299.928,567.098 302.928,569.431 306.5,571C 323.167,571.333 339.833,571.667 356.5,572C 360.249,577.208 365.249,579.708 371.5,579.5C 374.097,579.721 374.097,580.221 371.5,581C 373.997,583.26 373.33,584.593 369.5,585C 370.833,585.667 370.833,586.333 369.5,587C 373.358,588.273 377.358,589.273 381.5,590C 373.173,590.5 364.84,590.666 356.5,590.5C 352.841,585.608 348.174,584.441 342.5,587C 340.266,588.638 338.933,590.805 338.5,593.5C 337.842,594.398 337.176,595.398 336.5,596.5C 335.682,592.679 333.349,590.679 329.5,590.5C 325.585,591.557 321.919,592.391 318.5,593C 313.928,600.179 308.095,601.346 301,596.5C 300.098,596.743 299.265,597.077 298.5,597.5C 286.034,589.692 277.7,578.692 273.5,564.5C 275.815,562.339 278.482,560.672 281.5,559.5C 281.5,558.5 281.5,557.5 281.5,556.5 Z"/></g>
<g><path style="opacity:1" fill="#244bcc" d="M 618.5,562.5 C 604.875,582.161 586.208,589.495 562.5,584.5C 551.782,580.779 543.449,574.112 537.5,564.5C 537.343,563.127 537.51,561.793 538,560.5C 541.785,564.131 545.951,567.131 550.5,569.5C 553.827,571.83 557.493,573.663 561.5,575C 598.797,579.708 617.297,563.208 617,525.5C 618.829,527.156 620.163,529.156 621,531.5C 623.48,542.117 622.647,552.45 618.5,562.5 Z"/></g>
<g><path style="opacity:1" fill="#234acc" d="M 476.5,564.5 C 476.833,564.5 477.167,564.5 477.5,564.5C 479.205,577.951 486.205,587.284 498.5,592.5C 501.421,593.719 504.588,594.386 508,594.5C 513.404,593.886 518.737,592.886 524,591.5C 524.833,591.833 525.667,592.167 526.5,592.5C 519.815,599.234 511.649,602.567 502,602.5C 492.659,601.911 484.826,598.245 478.5,591.5C 478.44,590.957 478.107,590.624 477.5,590.5C 476.181,597.99 476.181,605.323 477.5,612.5C 477.5,613.167 477.5,613.833 477.5,614.5C 477.807,616.446 477.807,618.113 477.5,619.5C 476.052,617.333 474.885,615 474,612.5C 473.755,614.663 472.755,616.33 471,617.5C 470.667,616.5 470.333,615.5 470,614.5C 469.505,616.473 469.338,618.473 469.5,620.5C 468.448,620.351 467.448,620.517 466.5,621C 466.833,621.333 467.167,621.667 467.5,622C 466.915,623.302 466.249,624.469 465.5,625.5C 464.517,598.211 464.184,570.878 464.5,543.5C 465.326,548.316 465.826,553.316 466,558.5C 466.171,553.467 466.671,548.467 467.5,543.5C 468.478,543.023 469.311,542.357 470,541.5C 471.233,544.297 472.733,546.963 474.5,549.5C 475.064,555.877 475.731,560.877 476.5,564.5 Z"/></g>
<g><path style="opacity:1" fill="#dee6f7" d="M 537.5,564.5 C 543.449,574.112 551.782,580.779 562.5,584.5C 561.737,585.268 560.737,585.768 559.5,586C 563.323,590.274 563.49,594.774 560,599.5C 557.833,601.83 556.166,604.497 555,607.5C 554.667,607.167 554.333,606.833 554,606.5C 553.667,608.5 553.333,610.5 553,612.5C 552.79,610.942 552.29,609.609 551.5,608.5C 548.081,610.412 545.081,612.912 542.5,616C 533.281,622.569 522.948,625.402 511.5,624.5C 512.364,626.197 513.697,627.363 515.5,628C 522.449,629.122 529.449,629.789 536.5,630C 538.376,631.017 540.376,631.851 542.5,632.5C 529.592,639.118 515.925,641.284 501.5,639C 488.55,635.551 480.55,627.385 477.5,614.5C 477.5,613.833 477.5,613.167 477.5,612.5C 477.175,605.313 477.509,598.313 478.5,591.5C 484.826,598.245 492.659,601.911 502,602.5C 511.649,602.567 519.815,599.234 526.5,592.5C 525.667,592.167 524.833,591.833 524,591.5C 518.737,592.886 513.404,593.886 508,594.5C 504.588,594.386 501.421,593.719 498.5,592.5C 502.842,590.245 508.509,588.745 515.5,588C 520.069,580.904 524.569,573.071 529,564.5C 529.333,564.833 529.667,565.167 530,565.5C 530.611,563.25 531.944,561.583 534,560.5C 534.333,561.833 534.667,563.167 535,564.5C 535.977,565.774 536.811,565.774 537.5,564.5 Z"/></g>
<g><path style="opacity:1" fill="#d2ddf4" d="M 650.5,527.5 C 651.887,529.877 652.721,532.543 653,535.5C 656.109,551.084 652.109,564.418 641,575.5C 640,572.5 639,569.5 638,566.5C 637.632,565.09 636.799,564.09 635.5,563.5C 634.431,571.249 632.931,578.916 631,586.5C 625.153,601.175 614.319,608.509 598.5,608.5C 599.395,603.474 599.395,598.474 598.5,593.5C 592.782,602.772 585.782,610.938 577.5,618C 568.352,624.11 558.352,626.11 547.5,624C 546.572,623.612 545.905,622.945 545.5,622C 548.729,618.043 550.729,613.543 551.5,608.5C 552.29,609.609 552.79,610.942 553,612.5C 553.333,610.5 553.667,608.5 554,606.5C 554.333,606.833 554.667,607.167 555,607.5C 556.166,604.497 557.833,601.83 560,599.5C 563.49,594.774 563.323,590.274 559.5,586C 560.737,585.768 561.737,585.268 562.5,584.5C 586.208,589.495 604.875,582.161 618.5,562.5C 618.709,563.922 619.209,565.255 620,566.5C 627.358,559.963 634.858,553.629 642.5,547.5C 645.167,543.833 647.833,540.167 650.5,536.5C 649.423,533.526 649.423,530.526 650.5,527.5 Z"/></g>
<g><path style="opacity:1" fill="#3b40d7" d="M 338.5,593.5 C 339.129,600.791 343.129,604.124 350.5,603.5C 351.873,603.343 353.207,603.51 354.5,604C 352.138,605.862 349.471,607.029 346.5,607.5C 342.996,604.292 340.329,604.958 338.5,609.5C 338.709,610.086 339.043,610.586 339.5,611C 337.803,611.384 336.137,611.218 334.5,610.5C 333.386,609.115 332.386,607.615 331.5,606C 319.551,606.383 308.551,603.55 298.5,597.5C 299.265,597.077 300.098,596.743 301,596.5C 308.095,601.346 313.928,600.179 318.5,593C 321.919,592.391 325.585,591.557 329.5,590.5C 333.349,590.679 335.682,592.679 336.5,596.5C 337.176,595.398 337.842,594.398 338.5,593.5 Z"/></g>
<g><path style="opacity:1" fill="#2b46cc" d="M 419.5,538.5 C 420.482,539.141 421.482,539.807 422.5,540.5C 423.666,556.823 423.833,573.156 423,589.5C 421.939,592.562 420.106,595.062 417.5,597C 412.5,600.667 407.5,604.333 402.5,608C 398.879,607.595 395.213,607.595 391.5,608C 387.097,610.623 385.431,614.457 386.5,619.5C 386.205,621.423 385.372,623.09 384,624.5C 383.667,624.167 383.333,623.833 383,623.5C 381.833,624.667 380.667,625.833 379.5,627C 376.666,627.045 374.166,627.879 372,629.5C 371.167,628.667 370.333,627.833 369.5,627C 373.416,625.282 373.083,624.115 368.5,623.5C 365.388,624.351 365.054,625.517 367.5,627C 366.584,627.374 365.75,627.874 365,628.5C 362.281,627.556 359.448,627.223 356.5,627.5C 352.289,625.902 348.622,623.568 345.5,620.5C 348.298,621.1 350.965,622.1 353.5,623.5C 359.297,620.494 364.963,616.328 370.5,611C 373.255,609.047 376.255,607.88 379.5,607.5C 379.191,604.654 377.525,603.154 374.5,603C 377.329,602.952 379.663,601.952 381.5,600C 373.173,599.5 364.84,599.334 356.5,599.5C 365.658,598.67 374.991,598.17 384.5,598C 400.859,593.636 408.859,582.97 408.5,566C 408.71,561.943 408.044,558.109 406.5,554.5C 409.511,554.173 412.011,552.839 414,550.5C 414.912,547.761 416.412,545.428 418.5,543.5C 419.452,541.955 419.785,540.288 419.5,538.5 Z"/></g>
<g><path style="opacity:1" fill="#718fde" d="M 478.5,591.5 C 477.509,598.313 477.175,605.313 477.5,612.5C 476.181,605.323 476.181,597.99 477.5,590.5C 478.107,590.624 478.44,590.957 478.5,591.5 Z"/></g>
<g><path style="opacity:1" fill="#3042d1" d="M 356.5,599.5 C 364.84,599.334 373.173,599.5 381.5,600C 379.663,601.952 377.329,602.952 374.5,603C 377.525,603.154 379.191,604.654 379.5,607.5C 376.255,607.88 373.255,609.047 370.5,611C 364.963,616.328 359.297,620.494 353.5,623.5C 350.965,622.1 348.298,621.1 345.5,620.5C 341.209,617.877 337.543,614.544 334.5,610.5C 336.137,611.218 337.803,611.384 339.5,611C 339.043,610.586 338.709,610.086 338.5,609.5C 340.329,604.958 342.996,604.292 346.5,607.5C 349.471,607.029 352.138,605.862 354.5,604C 353.207,603.51 351.873,603.343 350.5,603.5C 352.463,602.18 354.463,600.846 356.5,599.5 Z"/></g>
<g><path style="opacity:1" fill="#1e49c4" d="M 671.5,510.5 C 670.695,518.082 668.195,525.082 664,531.5C 667.65,555.243 659.984,574.243 641,588.5C 632.379,610.406 616.212,620.573 592.5,619C 582.119,630.369 569.452,638.036 554.5,642C 545.467,655.69 532.8,663.69 516.5,666C 515.693,671.083 515.193,676.25 515,681.5C 511.747,689.213 505.914,692.379 497.5,691C 493,689.167 489.833,686 488,681.5C 487.667,670.833 487.333,660.167 487,649.5C 475.406,645.409 468.24,637.409 465.5,625.5C 466.249,624.469 466.915,623.302 467.5,622C 467.167,621.667 466.833,621.333 466.5,621C 467.448,620.517 468.448,620.351 469.5,620.5C 469.338,618.473 469.505,616.473 470,614.5C 470.333,615.5 470.667,616.5 471,617.5C 472.755,616.33 473.755,614.663 474,612.5C 474.885,615 476.052,617.333 477.5,619.5C 477.807,618.113 477.807,616.446 477.5,614.5C 480.55,627.385 488.55,635.551 501.5,639C 515.925,641.284 529.592,639.118 542.5,632.5C 540.376,631.851 538.376,631.017 536.5,630C 529.449,629.789 522.449,629.122 515.5,628C 513.697,627.363 512.364,626.197 511.5,624.5C 522.948,625.402 533.281,622.569 542.5,616C 545.081,612.912 548.081,610.412 551.5,608.5C 550.729,613.543 548.729,618.043 545.5,622C 545.905,622.945 546.572,623.612 547.5,624C 558.352,626.11 568.352,624.11 577.5,618C 585.782,610.938 592.782,602.772 598.5,593.5C 599.395,598.474 599.395,603.474 598.5,608.5C 614.319,608.509 625.153,601.175 631,586.5C 632.931,578.916 634.431,571.249 635.5,563.5C 636.799,564.09 637.632,565.09 638,566.5C 639,569.5 640,572.5 641,575.5C 652.109,564.418 656.109,551.084 653,535.5C 652.721,532.543 651.887,529.877 650.5,527.5C 644.178,513.382 646.345,512.048 657,523.5C 659.318,517.863 661.151,512.197 662.5,506.5C 662.34,508.199 662.506,509.866 663,511.5C 663.333,505.5 663.667,499.5 664,493.5C 664.333,493.833 664.667,494.167 665,494.5C 665.667,493.167 666.667,492.167 668,491.5C 668.667,494.167 669.333,494.167 670,491.5C 670.172,498.013 670.672,504.347 671.5,510.5 Z"/></g>
<g><path style="opacity:1" fill="#2247c4" d="M 448.5,557.5 C 448.667,576.836 448.5,596.17 448,615.5C 444.492,629.341 435.659,637.175 421.5,639C 398.741,640.344 377.074,636.511 356.5,627.5C 359.448,627.223 362.281,627.556 365,628.5C 365.75,627.874 366.584,627.374 367.5,627C 365.054,625.517 365.388,624.351 368.5,623.5C 373.083,624.115 373.416,625.282 369.5,627C 370.333,627.833 371.167,628.667 372,629.5C 374.166,627.879 376.666,627.045 379.5,627C 380.667,625.833 381.833,624.667 383,623.5C 383.333,623.833 383.667,624.167 384,624.5C 385.372,623.09 386.205,621.423 386.5,619.5C 387.931,621.437 389.598,623.27 391.5,625C 401.192,626.561 406.026,622.394 406,612.5C 411.413,608.543 416.913,604.71 422.5,601C 426.311,597.85 428.977,594.017 430.5,589.5C 432.132,583.597 433.299,576.264 434,567.5C 434.667,566.167 435.333,564.833 436,563.5C 438.305,567.213 441.471,568.213 445.5,566.5C 446.281,567.729 446.781,569.062 447,570.5C 447.175,565.981 447.675,561.647 448.5,557.5 Z"/></g>
<g><path style="opacity:1" fill="#becff5" d="M 535.5,645.5 C 537.337,645.639 537.67,646.306 536.5,647.5C 527.194,653.898 516.86,656.898 505.5,656.5C 505.666,664.174 505.5,671.841 505,679.5C 502.936,680.591 500.769,680.758 498.5,680C 497.515,670.583 497.182,661.083 497.5,651.5C 505.507,651.666 513.507,651.5 521.5,651C 526.509,649.761 531.176,647.928 535.5,645.5 Z"/></g>
</svg>
